# Blender v2.90.1 OBJ File: 'road.blend'
# www.blender.org
mtllib roadShort.mtl
o Plane.032_Plane.010
v 3.000000 -0.999998 0.000000
v 3.000000 1.000002 0.000000
v 3.000000 -0.999998 0.100000
v 3.000000 1.000002 0.100000
v 3.000000 -2.999998 0.100000
v 3.000000 3.000002 0.100000
v -3.000000 1.000003 0.000000
v -3.000000 1.000003 0.100000
v -3.000000 3.000004 0.100000
v -3.000000 -0.999996 0.000000
v -3.000000 -0.999996 0.100000
v -3.000000 -2.999996 0.100000
v 3.000000 -2.999998 -0.000000
v 3.000000 3.000002 -0.000000
v -3.000000 3.000004 -0.000000
v -3.000000 -2.999996 -0.000000
vt 0.000000 4.343750
vt 1.000000 4.343750
vt 1.000000 6.328125
vt 0.000000 6.328125
vt 1.000000 6.234375
vt 1.000000 4.156250
vt 1.000000 4.156250
vt 1.000000 6.234375
vt 1.000000 4.156250
vt 1.000000 6.234375
vt 0.000000 4.156250
vt 0.000000 6.234375
vt 0.000000 6.234375
vt 0.000000 4.156250
vt 0.000000 4.156250
vt 0.000000 6.234375
vt 0.000000 6.234375
vt 0.000000 4.156250
vt 1.000000 4.156250
vt 1.000000 6.234375
vn 0.0000 0.0000 1.0000
vn -0.0000 -1.0000 0.0000
vn 0.0000 1.0000 0.0000
usemtl RoadLane
s off
f 1/1/1 2/2/1 7/3/1 10/4/1
usemtl Sideway
f 7/5/2 2/6/2 4/7/2 8/8/2
f 8/8/1 4/7/1 6/9/1 9/10/1
f 3/11/1 11/12/1 12/13/1 5/14/1
f 1/15/3 10/16/3 11/12/3 3/11/3
f 5/14/2 12/13/2 16/17/2 13/18/2
f 9/10/3 6/9/3 14/19/3 15/20/3
