# Blender v2.90.1 OBJ File: 'road.blend'
# www.blender.org
mtllib roatTee.mtl
o Plane.032_Plane.003
v -1.000000 3.000000 0.000000
v 1.000000 3.000000 0.000000
v 1.000000 3.000000 0.100000
v 3.000000 3.000000 0.100000
v 1.000000 1.000000 0.000000
v 1.000000 1.000000 0.100000
v 3.000000 1.000000 0.100000
v 1.000000 1.165000 0.000000
v -1.000000 1.165000 0.000000
v -0.825984 2.243394 0.022280
v -0.825984 1.528027 0.022280
v -0.990984 2.243394 0.022280
v -0.990984 1.528027 0.022280
v -0.525984 2.243394 0.022280
v -0.525984 1.528027 0.022280
v -0.690984 2.243394 0.022280
v -0.690984 1.528027 0.022280
v -0.225984 2.243394 0.022280
v -0.225984 1.528027 0.022280
v -0.390984 2.243394 0.022280
v -0.390984 1.528027 0.022280
v 0.074016 2.243394 0.022280
v 0.074016 1.528027 0.022280
v -0.090984 2.243394 0.022280
v -0.090984 1.528027 0.022280
v 0.374016 2.243394 0.022280
v 0.374016 1.528027 0.022280
v 0.209016 2.243394 0.022280
v 0.209016 1.528027 0.022280
v 0.674016 2.243394 0.022280
v 0.674016 1.528027 0.022280
v 0.509016 2.243394 0.022280
v 0.509016 1.528027 0.022280
v 0.974016 2.243394 0.022280
v 0.974016 1.528027 0.022280
v 0.809016 2.243394 0.022280
v 0.809016 1.528027 0.022280
v 1.000000 1.317227 0.000000
v -1.000000 1.317227 0.000000
v -3.000000 -1.000000 0.000000
v -3.000000 1.000000 0.000000
v -3.000000 1.000000 0.100000
v -3.000000 3.000000 0.100000
v -1.000000 -1.000000 0.000000
v -1.000000 3.000000 0.100000
v -1.000000 1.000000 0.000000
v -1.000000 1.000000 0.100000
v -1.165000 1.000000 0.000000
v -1.165000 -1.000000 0.000000
v -2.243394 -0.825984 0.022280
v -1.528027 -0.825984 0.022280
v -2.243394 -0.990984 0.022280
v -1.528027 -0.990984 0.022280
v -2.243394 -0.525984 0.022280
v -1.528027 -0.525984 0.022280
v -2.243394 -0.690984 0.022280
v -1.528027 -0.690984 0.022280
v -2.243394 -0.225984 0.022280
v -1.528027 -0.225984 0.022280
v -2.243394 -0.390984 0.022280
v -1.528027 -0.390984 0.022280
v -2.243394 0.074016 0.022280
v -1.528027 0.074016 0.022280
v -2.243394 -0.090984 0.022280
v -1.528027 -0.090984 0.022280
v -2.243394 0.374016 0.022280
v -1.528027 0.374016 0.022280
v -2.243394 0.209016 0.022280
v -1.528027 0.209016 0.022280
v -2.243394 0.674016 0.022280
v -1.528028 0.674016 0.022280
v -2.243394 0.509016 0.022280
v -1.528028 0.509016 0.022280
v -2.243394 0.974016 0.022280
v -1.528027 0.974016 0.022280
v -2.243394 0.809016 0.022280
v -1.528027 0.809016 0.022280
v -1.317227 1.000000 0.000000
v -1.317227 -1.000000 0.000000
v 1.000000 -3.000000 0.000000
v -1.000000 -3.000000 0.000000
v -1.000000 -3.000000 0.100000
v -3.000000 -3.000000 0.100000
v -3.000000 -1.000000 0.100000
v -1.000000 -1.000000 0.100000
v -1.000000 -1.165000 0.000000
v 1.000000 -1.165000 0.000000
v 0.825984 -2.243394 0.022280
v 0.825984 -1.528027 0.022280
v 0.990984 -2.243394 0.022280
v 0.990984 -1.528027 0.022280
v 0.525984 -2.243394 0.022280
v 0.525984 -1.528027 0.022280
v 0.690984 -2.243394 0.022280
v 0.690984 -1.528027 0.022280
v 0.225984 -2.243394 0.022280
v 0.225984 -1.528027 0.022280
v 0.390984 -2.243394 0.022280
v 0.390984 -1.528027 0.022280
v -0.074016 -2.243394 0.022280
v -0.074016 -1.528027 0.022280
v 0.090984 -2.243394 0.022280
v 0.090984 -1.528027 0.022280
v -0.374016 -2.243394 0.022280
v -0.374016 -1.528027 0.022280
v -0.209016 -2.243394 0.022280
v -0.209016 -1.528027 0.022280
v -0.674016 -2.243394 0.022280
v -0.674016 -1.528028 0.022280
v -0.509016 -2.243394 0.022280
v -0.509016 -1.528028 0.022280
v -0.974016 -2.243394 0.022280
v -0.974016 -1.528028 0.022280
v -0.809016 -2.243394 0.022280
v -0.809016 -1.528027 0.022280
v -1.000000 -1.317227 0.000000
v 1.000000 -1.317227 0.000000
v 3.000000 -1.000000 0.100000
v 3.000000 -3.000000 0.100000
v 1.000000 -3.000000 0.100000
v 1.000000 -1.000000 0.000000
v 1.000000 -1.000000 0.100000
v 3.000000 3.000000 0.000000
v 3.000000 1.000000 0.000000
v 3.000000 -1.000000 -0.000000
v 3.000000 -3.000000 -0.000000
vt 0.092348 8.035002
vt 0.907652 8.035002
vt 0.907652 8.056509
vt 0.092348 8.056509
vt 0.469691 7.728387
vt 0.469691 7.688605
vt 0.530309 7.688605
vt 0.530309 7.728387
vt 0.469691 7.882341
vt 0.469691 7.811152
vt 0.530309 7.811152
vt 0.530309 7.882341
vt 0.469691 7.882341
vt 0.469691 7.811152
vt 0.530309 7.811152
vt 0.530309 7.882341
vt 0.469691 7.882341
vt 0.469691 7.811152
vt 0.530309 7.811152
vt 0.530309 7.882341
vt 0.469691 7.882341
vt 0.469691 7.811152
vt 0.530309 7.811152
vt 0.530309 7.882341
vt 0.469691 7.882341
vt 0.469691 7.811152
vt 0.530309 7.811152
vt 0.530309 7.882341
vt 0.469691 7.882341
vt 0.469691 7.811152
vt 0.530309 7.811152
vt 0.530309 7.882341
vt 0.469691 7.882341
vt 0.469691 7.811152
vt 0.530309 7.811152
vt 0.530309 7.882341
vt 0.500599 7.901042
vt 0.500599 8.104667
vt 0.499401 8.104667
vt 0.499401 7.901042
vt 0.092348 8.035002
vt 0.907652 8.035002
vt 0.907652 8.056509
vt 0.092348 8.056509
vt 0.469691 7.728387
vt 0.469691 7.688605
vt 0.530309 7.688605
vt 0.530309 7.728387
vt 0.469691 7.882341
vt 0.469691 7.811152
vt 0.530309 7.811152
vt 0.530309 7.882341
vt 0.469691 7.882341
vt 0.469691 7.811152
vt 0.530309 7.811152
vt 0.530309 7.882341
vt 0.469691 7.882341
vt 0.469691 7.811152
vt 0.530309 7.811152
vt 0.530309 7.882341
vt 0.469691 7.882341
vt 0.469691 7.811152
vt 0.530309 7.811152
vt 0.530309 7.882341
vt 0.469691 7.882341
vt 0.469691 7.811152
vt 0.530309 7.811152
vt 0.530309 7.882341
vt 0.469691 7.882341
vt 0.469691 7.811152
vt 0.530309 7.811152
vt 0.530309 7.882341
vt 0.469691 7.882341
vt 0.469691 7.811152
vt 0.530309 7.811152
vt 0.530309 7.882341
vt 0.500599 7.901042
vt 0.500599 8.104667
vt 0.499401 8.104667
vt 0.499401 7.901042
vt 0.092348 8.035002
vt 0.907652 8.035002
vt 0.907652 8.056509
vt 0.092348 8.056509
vt 0.469691 7.728387
vt 0.469691 7.688605
vt 0.530309 7.688605
vt 0.530309 7.728387
vt 0.469691 7.882341
vt 0.469691 7.811152
vt 0.530309 7.811152
vt 0.530309 7.882341
vt 0.469691 7.882341
vt 0.469691 7.811152
vt 0.530309 7.811152
vt 0.530309 7.882341
vt 0.469691 7.882341
vt 0.469691 7.811152
vt 0.530309 7.811152
vt 0.530309 7.882341
vt 0.469691 7.882341
vt 0.469691 7.811152
vt 0.530309 7.811152
vt 0.530309 7.882341
vt 0.469691 7.882341
vt 0.469691 7.811152
vt 0.530309 7.811152
vt 0.530309 7.882341
vt 0.469691 7.882341
vt 0.469691 7.811152
vt 0.530309 7.811152
vt 0.530309 7.882341
vt 0.469691 7.882341
vt 0.469691 7.811152
vt 0.530309 7.811152
vt 0.530309 7.882341
vt 0.500599 7.901042
vt 0.500599 8.104667
vt 0.499401 8.104667
vt 0.499401 7.901042
vt 1.000000 8.312500
vt 1.000000 8.058002
vt 1.000000 8.001261
vt 1.000000 7.938437
vt 1.000000 7.938437
vt 1.000000 8.312500
vt 1.000000 7.938437
vt 1.000000 8.312500
vt 1.000000 8.312500
vt 1.000000 8.058002
vt 1.000000 8.001261
vt 1.000000 7.938437
vt 1.000000 7.938437
vt 1.000000 8.312500
vt 1.000000 7.190312
vt 1.000000 6.816250
vt 1.000000 6.816250
vt 1.000000 7.190312
vt 1.000000 7.938437
vt 1.000000 8.312500
vt 1.000000 8.312500
vt 1.000000 8.058002
vt 1.000000 8.001261
vt 1.000000 7.938437
vt 1.000000 7.938437
vt 1.000000 8.312500
vt 1.000000 7.190312
vt 1.000000 6.816250
vt 1.000000 6.816250
vt 1.000000 7.190312
vt 1.000000 7.938437
vt 1.000000 8.312500
vt 1.000000 7.190312
vt 1.000000 6.816250
vt 1.000000 6.816250
vt 1.000000 7.190312
vt 1.000000 8.312500
vt 1.000000 7.938437
vt 1.000000 7.938437
vt 1.000000 8.312500
vt 1.000000 8.312500
vt 1.000000 7.938437
vt 1.000000 8.312500
vt 1.000000 8.312500
vn 0.0000 0.0000 1.0000
vn -1.0000 0.0000 0.0000
vn 0.0000 -1.0000 0.0000
vn 1.0000 0.0000 0.0000
vn 0.0000 1.0000 0.0000
usemtl RoadLane
s off
f 39/1/1 38/2/1 2/3/1 1/4/1
f 46/5/1 5/6/1 8/7/1 9/8/1
f 11/9/1 10/10/1 12/11/1 13/12/1
f 15/13/1 14/14/1 16/15/1 17/16/1
f 19/17/1 18/18/1 20/19/1 21/20/1
f 23/21/1 22/22/1 24/23/1 25/24/1
f 27/25/1 26/26/1 28/27/1 29/28/1
f 31/29/1 30/30/1 32/31/1 33/32/1
f 35/33/1 34/34/1 36/35/1 37/36/1
f 9/37/1 8/38/1 38/39/1 39/40/1
f 79/41/1 78/42/1 41/43/1 40/44/1
f 44/45/1 46/46/1 48/47/1 49/48/1
f 51/49/1 50/50/1 52/51/1 53/52/1
f 55/53/1 54/54/1 56/55/1 57/56/1
f 59/57/1 58/58/1 60/59/1 61/60/1
f 63/61/1 62/62/1 64/63/1 65/64/1
f 67/65/1 66/66/1 68/67/1 69/68/1
f 71/69/1 70/70/1 72/71/1 73/72/1
f 75/73/1 74/74/1 76/75/1 77/76/1
f 49/77/1 48/78/1 78/79/1 79/80/1
f 117/81/1 116/82/1 81/83/1 80/84/1
f 121/85/1 44/86/1 86/87/1 87/88/1
f 89/89/1 88/90/1 90/91/1 91/92/1
f 93/93/1 92/94/1 94/95/1 95/96/1
f 97/97/1 96/98/1 98/99/1 99/100/1
f 101/101/1 100/102/1 102/103/1 103/104/1
f 105/105/1 104/106/1 106/107/1 107/108/1
f 109/109/1 108/110/1 110/111/1 111/112/1
f 113/113/1 112/114/1 114/115/1 115/116/1
f 87/117/1 86/118/1 116/119/1 117/120/1
f 5/6/1 46/5/1 44/86/1 121/85/1
usemtl Sideway
f 2/121/2 38/122/2 8/123/2 5/124/2 6/125/2 3/126/2
f 3/126/1 6/125/1 7/127/1 4/128/1
f 41/129/3 78/130/3 48/131/3 46/132/3 47/133/3 42/134/3
f 46/135/4 1/136/4 45/137/4 47/138/4
f 42/134/1 47/133/1 45/139/1 43/140/1
f 81/141/4 116/142/4 86/143/4 44/144/4 85/145/4 82/146/4
f 44/147/5 40/148/5 84/149/5 85/150/5
f 82/146/1 85/145/1 84/151/1 83/152/1
f 121/153/2 80/154/2 120/155/2 122/156/2
f 118/157/1 122/158/1 120/159/1 119/160/1
f 7/127/1 6/125/1 122/158/1 118/157/1
f 6/125/2 5/124/2 121/153/2 122/156/2
f 7/127/4 118/157/4 125/161/4 124/162/4
f 118/157/4 119/160/4 126/163/4 125/161/4
f 4/128/4 7/127/4 124/162/4 123/164/4
