# Blender v2.90.1 OBJ File: 'road.blend'
# www.blender.org
mtllib roatEnd.mtl
o Plane.030_Plane.006
v 3.000000 -0.999998 0.000000
v 3.000000 1.000002 0.000000
v 3.000000 -0.999998 0.100000
v 3.000000 1.000002 0.100000
v 3.000000 -2.999998 0.100000
v 3.000000 3.000002 0.100000
v -2.000000 1.000001 0.000000
v -2.000000 1.000001 0.100000
v -2.000000 3.000001 0.100000
v -2.000000 -0.999999 0.000000
v -2.000000 -0.999999 0.100000
v -2.000000 -2.999999 0.100000
v -3.000000 1.000003 -0.000000
v -3.000000 3.000004 -0.000000
v -3.000000 -0.999996 0.000000
v -3.000000 -2.999996 -0.000000
v 3.000000 -2.999998 -0.000000
v 3.000000 3.000002 -0.000000
vt 0.500000 5.335938
vt 0.500000 5.335938
vt 0.500000 5.335938
vt 0.500000 5.335938
vt 0.500000 5.335938
vt 0.500000 5.335938
vt 1.000000 6.234375
vt 1.000000 4.156250
vt 1.000000 4.156250
vt 1.000000 6.234375
vt 1.000000 4.156250
vt 1.000000 6.234375
vt 0.000000 4.156250
vt 0.000000 6.234375
vt 0.000000 6.234375
vt 0.000000 4.156250
vt 0.000000 4.156250
vt 0.000000 6.234375
vt 0.000000 6.234375
vt 1.000000 6.234375
vt 1.000000 6.234375
vt 0.000000 6.234375
vt 0.000000 4.156250
vt 1.000000 4.156250
vn -0.0000 0.0000 1.0000
vn 0.0000 -1.0000 0.0000
vn -0.0000 1.0000 0.0000
vn -0.0995 0.0000 0.9950
usemtl RoadLane
s off
f 1/1/1 2/2/1 7/3/1 10/4/1
f 10/4/1 7/3/1 13/5/1 15/6/1
usemtl Sideway
f 7/7/2 2/8/2 4/9/2 8/10/2
f 8/10/1 4/9/1 6/11/1 9/12/1
f 3/13/1 11/14/1 12/15/1 5/16/1
f 1/17/3 10/18/3 11/14/3 3/13/3
f 11/14/3 10/18/3 15/19/3
f 8/10/4 9/12/4 14/20/4 13/21/4
f 12/15/4 11/14/4 15/19/4 16/22/4
f 7/7/2 8/10/2 13/21/2
f 5/16/2 12/15/2 16/22/2 17/23/2
f 9/12/3 6/11/3 18/24/3 14/20/3
