# MagicaVoxel @ Ephtracy

# group
o 

# material
mtllib bench.mtl
usemtl palette

# normals
vn -1 0 0
vn 1 0 0
vn 0 0 1
vn 0 0 -1
vn 0 -1 0
vn 0 1 0

# texcoords
vt 0.333984 0.5
vt 0.994141 0.5

# verts
v -0.8 0.8 2
v -0.8 0.8 1.9
v -0.8 0.8 1.6
v -0.8 0.8 1.5
v -0.8 1.2 1.9
v -0.8 1.2 1.6
v -0.8 1.3 1.9
v -0.8 1.3 1.5
v -0.8 1.9 2
v -0.8 1.9 1.9
v 0.8 0.8 2
v 0.8 0.8 1.9
v 0.8 0.8 1.6
v 0.8 0.8 1.5
v 0.8 1.2 2
v 0.8 1.2 1.9
v 0.8 1.2 1.8
v 0.8 1.2 1.7
v 0.8 1.2 1.6
v 0.8 1.2 1.5
v 0.8 1.3 2
v 0.8 1.3 1.9
v 0.8 1.3 1.8
v 0.8 1.3 1.7
v 0.8 1.3 1.6
v 0.8 1.4 2
v 0.8 1.4 1.9
v 0.8 1.5 2
v 0.8 1.5 1.9
v 0.8 1.6 2
v 0.8 1.6 1.9
v 0.8 1.7 2
v 0.8 1.7 1.9
v 0.8 1.8 2
v 0.8 1.8 1.9
v -0.7 0.8 2
v -0.7 0.8 1.9
v -0.7 0.8 1.6
v -0.7 0.8 1.5
v -0.7 1.2 2
v -0.7 1.2 1.9
v -0.7 1.2 1.8
v -0.7 1.2 1.7
v -0.7 1.2 1.6
v -0.7 1.2 1.5
v -0.7 1.3 2
v -0.7 1.3 1.9
v -0.7 1.3 1.8
v -0.7 1.3 1.7
v -0.7 1.3 1.6
v -0.7 1.4 2
v -0.7 1.4 1.9
v -0.7 1.5 2
v -0.7 1.5 1.9
v -0.7 1.6 2
v -0.7 1.6 1.9
v -0.7 1.7 2
v -0.7 1.7 1.9
v -0.7 1.8 2
v -0.7 1.8 1.9
v 0.9 0.8 2
v 0.9 0.8 1.9
v 0.9 0.8 1.6
v 0.9 0.8 1.5
v 0.9 1.2 1.9
v 0.9 1.2 1.6
v 0.9 1.3 1.9
v 0.9 1.3 1.5
v 0.9 1.9 2
v 0.9 1.9 1.9
v -0.8 0.8 2
v -0.8 1.9 2
v -0.7 0.8 2
v -0.7 1.2 2
v -0.7 1.3 2
v -0.7 1.4 2
v -0.7 1.5 2
v -0.7 1.6 2
v -0.7 1.7 2
v -0.7 1.8 2
v -0.7 1.9 2
v 0.8 0.8 2
v 0.8 1.2 2
v 0.8 1.3 2
v 0.8 1.4 2
v 0.8 1.5 2
v 0.8 1.6 2
v 0.8 1.7 2
v 0.8 1.8 2
v 0.8 1.9 2
v 0.9 0.8 2
v 0.9 1.9 2
v -0.7 1.2 1.8
v -0.7 1.3 1.8
v 0.8 1.2 1.8
v 0.8 1.3 1.8
v -0.8 0.8 1.6
v -0.8 1.2 1.6
v -0.7 0.8 1.6
v -0.7 1.2 1.6
v -0.7 1.3 1.6
v 0.8 0.8 1.6
v 0.8 1.2 1.6
v 0.8 1.3 1.6
v 0.9 0.8 1.6
v 0.9 1.2 1.6
v -0.8 0.8 1.9
v -0.8 1.2 1.9
v -0.8 1.3 1.9
v -0.8 1.9 1.9
v -0.7 0.8 1.9
v -0.7 1.2 1.9
v -0.7 1.3 1.9
v -0.7 1.4 1.9
v -0.7 1.5 1.9
v -0.7 1.6 1.9
v -0.7 1.7 1.9
v -0.7 1.8 1.9
v -0.7 1.9 1.9
v 0.8 0.8 1.9
v 0.8 1.2 1.9
v 0.8 1.3 1.9
v 0.8 1.4 1.9
v 0.8 1.5 1.9
v 0.8 1.6 1.9
v 0.8 1.7 1.9
v 0.8 1.8 1.9
v 0.8 1.9 1.9
v 0.9 0.8 1.9
v 0.9 1.2 1.9
v 0.9 1.3 1.9
v 0.9 1.9 1.9
v -0.7 1.2 1.7
v -0.7 1.3 1.7
v 0.8 1.2 1.7
v 0.8 1.3 1.7
v -0.8 0.8 1.5
v -0.8 1.3 1.5
v -0.7 0.8 1.5
v -0.7 1.2 1.5
v -0.7 1.3 1.5
v 0.8 0.8 1.5
v 0.8 1.2 1.5
v 0.8 1.3 1.5
v 0.9 0.8 1.5
v 0.9 1.3 1.5
v -0.8 0.8 2
v -0.7 0.8 2
v 0.8 0.8 2
v 0.9 0.8 2
v -0.8 0.8 1.9
v -0.7 0.8 1.9
v 0.8 0.8 1.9
v 0.9 0.8 1.9
v -0.8 0.8 1.6
v -0.7 0.8 1.6
v 0.8 0.8 1.6
v 0.9 0.8 1.6
v -0.8 0.8 1.5
v -0.7 0.8 1.5
v 0.8 0.8 1.5
v 0.9 0.8 1.5
v -0.7 1.2 2
v 0.8 1.2 2
v -0.8 1.2 1.9
v -0.7 1.2 1.9
v 0.8 1.2 1.9
v 0.9 1.2 1.9
v -0.7 1.2 1.8
v 0.8 1.2 1.8
v -0.7 1.2 1.7
v 0.8 1.2 1.7
v -0.8 1.2 1.6
v -0.7 1.2 1.6
v 0.8 1.2 1.6
v 0.9 1.2 1.6
v -0.7 1.2 1.5
v 0.8 1.2 1.5
v -0.7 1.4 2
v 0.8 1.4 2
v -0.7 1.4 1.9
v 0.8 1.4 1.9
v -0.7 1.6 2
v 0.8 1.6 2
v -0.7 1.6 1.9
v 0.8 1.6 1.9
v -0.7 1.8 2
v 0.8 1.8 2
v -0.7 1.8 1.9
v 0.8 1.8 1.9
v -0.7 1.3 2
v 0.8 1.3 2
v -0.8 1.3 1.9
v -0.7 1.3 1.9
v 0.8 1.3 1.9
v 0.9 1.3 1.9
v -0.7 1.3 1.8
v 0.8 1.3 1.8
v -0.7 1.3 1.7
v 0.8 1.3 1.7
v -0.7 1.3 1.6
v 0.8 1.3 1.6
v -0.8 1.3 1.5
v -0.7 1.3 1.5
v 0.8 1.3 1.5
v 0.9 1.3 1.5
v -0.7 1.5 2
v 0.8 1.5 2
v -0.7 1.5 1.9
v 0.8 1.5 1.9
v -0.7 1.7 2
v 0.8 1.7 2
v -0.7 1.7 1.9
v 0.8 1.7 1.9
v -0.8 1.9 2
v -0.7 1.9 2
v 0.8 1.9 2
v 0.9 1.9 2
v -0.8 1.9 1.9
v -0.7 1.9 1.9
v 0.8 1.9 1.9
v 0.9 1.9 1.9

# faces
f 5/2/1 2/2/1 1/2/1
f 6/2/1 4/2/1 3/2/1
f 7/2/1 5/2/1 1/2/1
f 7/2/1 6/2/1 5/2/1
f 8/2/1 4/2/1 6/2/1
f 8/2/1 6/2/1 7/2/1
f 9/2/1 7/2/1 1/2/1
f 10/2/1 7/2/1 9/2/1
f 15/2/1 12/2/1 11/2/1
f 16/2/1 12/2/1 15/2/1
f 19/2/1 14/2/1 13/2/1
f 20/2/1 14/2/1 19/2/1
f 22/2/1 17/2/1 16/2/1
f 23/2/1 17/2/1 22/2/1
f 24/2/1 19/2/1 18/2/1
f 25/2/1 19/2/1 24/2/1
f 26/2/1 22/2/1 21/2/1
f 27/2/1 22/2/1 26/2/1
f 30/2/1 29/2/1 28/2/1
f 31/2/1 29/2/1 30/2/1
f 34/2/1 33/2/1 32/2/1
f 35/2/1 33/2/1 34/2/1
f 36/2/2 37/2/2 40/2/2
f 40/2/2 37/2/2 41/2/2
f 38/2/2 39/2/2 44/2/2
f 44/2/2 39/2/2 45/2/2
f 41/2/2 42/2/2 47/2/2
f 47/2/2 42/2/2 48/2/2
f 43/2/2 44/2/2 49/2/2
f 49/2/2 44/2/2 50/2/2
f 46/2/2 47/2/2 51/2/2
f 51/2/2 47/2/2 52/2/2
f 53/2/2 54/2/2 55/2/2
f 55/2/2 54/2/2 56/2/2
f 57/2/2 58/2/2 59/2/2
f 59/2/2 58/2/2 60/2/2
f 61/2/2 62/2/2 65/2/2
f 63/2/2 64/2/2 66/2/2
f 61/2/2 65/2/2 67/2/2
f 65/2/2 66/2/2 67/2/2
f 66/2/2 64/2/2 68/2/2
f 67/2/2 66/2/2 68/2/2
f 61/2/2 67/2/2 69/2/2
f 69/2/2 67/2/2 70/2/2
f 73/2/3 72/2/3 71/2/3
f 74/2/3 72/2/3 73/2/3
f 75/2/3 72/2/3 74/2/3
f 76/2/3 72/2/3 75/2/3
f 77/2/3 72/2/3 76/2/3
f 78/2/3 72/2/3 77/2/3
f 79/2/3 72/2/3 78/2/3
f 80/2/3 72/2/3 79/2/3
f 81/2/3 72/2/3 80/2/3
f 83/1/3 75/1/3 74/1/3
f 84/1/3 75/1/3 83/1/3
f 85/1/3 77/1/3 76/1/3
f 86/1/3 77/1/3 85/1/3
f 87/1/3 79/1/3 78/1/3
f 88/1/3 79/1/3 87/1/3
f 89/1/3 81/1/3 80/1/3
f 90/1/3 81/1/3 89/1/3
f 91/2/3 86/2/3 85/2/3
f 91/2/3 88/2/3 87/2/3
f 91/2/3 90/2/3 89/2/3
f 91/2/3 89/2/3 88/2/3
f 91/2/3 84/2/3 83/2/3
f 91/2/3 87/2/3 86/2/3
f 91/2/3 83/2/3 82/2/3
f 91/2/3 85/2/3 84/2/3
f 92/2/3 90/2/3 91/2/3
f 95/1/3 94/1/3 93/1/3
f 96/1/3 94/1/3 95/1/3
f 99/2/3 98/2/3 97/2/3
f 100/2/3 98/2/3 99/2/3
f 103/1/3 101/1/3 100/1/3
f 104/1/3 101/1/3 103/1/3
f 105/2/3 103/2/3 102/2/3
f 106/2/3 103/2/3 105/2/3
f 107/2/4 108/2/4 111/2/4
f 111/2/4 108/2/4 112/2/4
f 109/2/4 110/2/4 113/2/4
f 113/2/4 110/2/4 114/2/4
f 114/2/4 110/2/4 115/2/4
f 115/2/4 110/2/4 116/2/4
f 116/2/4 110/2/4 117/2/4
f 117/2/4 110/2/4 118/2/4
f 118/2/4 110/2/4 119/2/4
f 112/1/4 113/1/4 121/1/4
f 121/1/4 113/1/4 122/1/4
f 114/1/4 115/1/4 123/1/4
f 123/1/4 115/1/4 124/1/4
f 116/1/4 117/1/4 125/1/4
f 125/1/4 117/1/4 126/1/4
f 118/1/4 119/1/4 127/1/4
f 127/1/4 119/1/4 128/1/4
f 120/2/4 121/2/4 129/2/4
f 129/2/4 121/2/4 130/2/4
f 123/2/4 124/2/4 131/2/4
f 125/2/4 126/2/4 131/2/4
f 127/2/4 128/2/4 131/2/4
f 126/2/4 127/2/4 131/2/4
f 122/2/4 123/2/4 131/2/4
f 124/2/4 125/2/4 131/2/4
f 131/2/4 128/2/4 132/2/4
f 133/1/4 134/1/4 135/1/4
f 135/1/4 134/1/4 136/1/4
f 137/2/4 138/2/4 139/2/4
f 139/2/4 138/2/4 140/2/4
f 140/2/4 138/2/4 141/2/4
f 140/1/4 141/1/4 143/1/4
f 143/1/4 141/1/4 144/1/4
f 142/2/4 143/2/4 145/2/4
f 143/2/4 144/2/4 145/2/4
f 145/2/4 144/2/4 146/2/4
f 151/2/5 148/2/5 147/2/5
f 152/2/5 148/2/5 151/2/5
f 153/2/5 150/2/5 149/2/5
f 154/2/5 150/2/5 153/2/5
f 159/2/5 156/2/5 155/2/5
f 160/2/5 156/2/5 159/2/5
f 161/2/5 158/2/5 157/2/5
f 162/2/5 158/2/5 161/2/5
f 166/1/5 164/1/5 163/1/5
f 167/1/5 164/1/5 166/1/5
f 169/2/5 166/2/5 165/2/5
f 170/2/5 168/2/5 167/2/5
f 171/2/5 169/2/5 165/2/5
f 171/1/5 170/1/5 169/1/5
f 172/2/5 168/2/5 170/2/5
f 172/1/5 170/1/5 171/1/5
f 173/2/5 171/2/5 165/2/5
f 174/2/5 171/2/5 173/2/5
f 175/2/5 168/2/5 172/2/5
f 176/2/5 168/2/5 175/2/5
f 177/1/5 175/1/5 174/1/5
f 178/1/5 175/1/5 177/1/5
f 181/1/5 180/1/5 179/1/5
f 182/1/5 180/1/5 181/1/5
f 185/1/5 184/1/5 183/1/5
f 186/1/5 184/1/5 185/1/5
f 189/1/5 188/1/5 187/1/5
f 190/1/5 188/1/5 189/1/5
f 191/1/6 192/1/6 194/1/6
f 194/1/6 192/1/6 195/1/6
f 193/2/6 194/2/6 197/2/6
f 195/2/6 196/2/6 198/2/6
f 193/2/6 197/2/6 199/2/6
f 197/1/6 198/1/6 199/1/6
f 198/2/6 196/2/6 200/2/6
f 199/1/6 198/1/6 200/1/6
f 193/2/6 199/2/6 201/2/6
f 200/2/6 196/2/6 202/2/6
f 193/2/6 201/2/6 203/2/6
f 201/1/6 202/1/6 204/1/6
f 203/2/6 201/2/6 204/2/6
f 202/2/6 196/2/6 205/2/6
f 204/1/6 202/1/6 205/1/6
f 205/2/6 196/2/6 206/2/6
f 207/1/6 208/1/6 209/1/6
f 209/1/6 208/1/6 210/1/6
f 211/1/6 212/1/6 213/1/6
f 213/1/6 212/1/6 214/1/6
f 215/2/6 216/2/6 219/2/6
f 216/1/6 217/1/6 220/1/6
f 219/2/6 216/2/6 220/2/6
f 217/2/6 218/2/6 221/2/6
f 220/1/6 217/1/6 221/1/6
f 221/2/6 218/2/6 222/2/6
