# MagicaVoxel @ Ephtracy

# group
o 

# material
mtllib traffic_lights.mtl
usemtl palette

# normals
vn -1 0 0
vn 1 0 0
vn 0 0 1
vn 0 0 -1
vn 0 -1 0
vn 0 1 0

# texcoords
vt 0.146484 0.5
vt 0.427734 0.5
vt 0.556641 0.5
vt 0.880859 0.5
vt 0.978516 0.5
vt 0.994141 0.5

# verts
v -0.4 1.9 -1
v -0.4 1.9 -1.4
v -0.4 3.4 -1
v -0.4 3.4 -1.4
v -0.3 2 -0.9
v -0.3 2 -1
v -0.3 2.2 -0.8
v -0.3 2.2 -0.9
v -0.3 2.3 -0.7
v -0.3 2.3 -0.8
v -0.3 2.5 -0.7
v -0.3 2.5 -0.9
v -0.3 2.6 -0.8
v -0.3 2.6 -0.9
v -0.3 2.7 -0.7
v -0.3 2.7 -0.8
v -0.3 2.9 -0.7
v -0.3 2.9 -0.9
v -0.3 3 -0.8
v -0.3 3 -0.9
v -0.3 3.1 -0.7
v -0.3 3.1 -0.8
v -0.3 3.3 -0.7
v -0.3 3.3 -1
v -0.2 0 -1.1
v -0.2 0 -1.4
v -0.2 1.9 -1.1
v -0.2 1.9 -1.4
v 0.1 2.2 -0.8
v 0.1 2.2 -0.9
v 0.1 2.3 -0.7
v 0.1 2.3 -0.8
v 0.1 2.4 -0.7
v 0.1 2.4 -0.9
v 0.1 2.6 -0.8
v 0.1 2.6 -0.9
v 0.1 2.7 -0.7
v 0.1 2.7 -0.8
v 0.1 2.8 -0.7
v 0.1 2.8 -0.9
v 0.1 3 -0.8
v 0.1 3 -0.9
v 0.1 3.1 -0.7
v 0.1 3.1 -0.8
v 0.1 3.2 -0.7
v 0.1 3.2 -0.9
v -0.2 2.2 -0.8
v -0.2 2.2 -0.9
v -0.2 2.3 -0.7
v -0.2 2.3 -0.8
v -0.2 2.4 -0.7
v -0.2 2.4 -0.9
v -0.2 2.6 -0.8
v -0.2 2.6 -0.9
v -0.2 2.7 -0.7
v -0.2 2.7 -0.8
v -0.2 2.8 -0.7
v -0.2 2.8 -0.9
v -0.2 3 -0.8
v -0.2 3 -0.9
v -0.2 3.1 -0.7
v -0.2 3.1 -0.8
v -0.2 3.2 -0.7
v -0.2 3.2 -0.9
v 0.1 0 -1.1
v 0.1 0 -1.4
v 0.1 1.9 -1.1
v 0.1 1.9 -1.4
v 0.2 2 -0.9
v 0.2 2 -1
v 0.2 2.2 -0.8
v 0.2 2.2 -0.9
v 0.2 2.3 -0.7
v 0.2 2.3 -0.8
v 0.2 2.5 -0.7
v 0.2 2.5 -0.9
v 0.2 2.6 -0.8
v 0.2 2.6 -0.9
v 0.2 2.7 -0.7
v 0.2 2.7 -0.8
v 0.2 2.9 -0.7
v 0.2 2.9 -0.9
v 0.2 3 -0.8
v 0.2 3 -0.9
v 0.2 3.1 -0.7
v 0.2 3.1 -0.8
v 0.2 3.3 -0.7
v 0.2 3.3 -1
v 0.3 1.9 -1
v 0.3 1.9 -1.4
v 0.3 3.4 -1
v 0.3 3.4 -1.4
v -0.3 2.3 -0.7
v -0.3 2.5 -0.7
v -0.3 2.7 -0.7
v -0.3 2.9 -0.7
v -0.3 3.1 -0.7
v -0.3 3.3 -0.7
v -0.2 2.3 -0.7
v -0.2 2.4 -0.7
v -0.2 2.7 -0.7
v -0.2 2.8 -0.7
v -0.2 3.1 -0.7
v -0.2 3.2 -0.7
v 0.1 2.3 -0.7
v 0.1 2.4 -0.7
v 0.1 2.7 -0.7
v 0.1 2.8 -0.7
v 0.1 3.1 -0.7
v 0.1 3.2 -0.7
v 0.2 2.3 -0.7
v 0.2 2.5 -0.7
v 0.2 2.7 -0.7
v 0.2 2.9 -0.7
v 0.2 3.1 -0.7
v 0.2 3.3 -0.7
v -0.3 2.2 -0.8
v -0.3 2.3 -0.8
v -0.3 2.6 -0.8
v -0.3 2.7 -0.8
v -0.3 3 -0.8
v -0.3 3.1 -0.8
v -0.2 2.2 -0.8
v -0.2 2.3 -0.8
v -0.2 2.6 -0.8
v -0.2 2.7 -0.8
v -0.2 3 -0.8
v -0.2 3.1 -0.8
v 0.1 2.2 -0.8
v 0.1 2.3 -0.8
v 0.1 2.6 -0.8
v 0.1 2.7 -0.8
v 0.1 3 -0.8
v 0.1 3.1 -0.8
v 0.2 2.2 -0.8
v 0.2 2.3 -0.8
v 0.2 2.6 -0.8
v 0.2 2.7 -0.8
v 0.2 3 -0.8
v 0.2 3.1 -0.8
v -0.3 2 -0.9
v -0.3 2.2 -0.9
v -0.3 2.5 -0.9
v -0.3 2.6 -0.9
v -0.3 2.9 -0.9
v -0.3 3 -0.9
v -0.2 2.1 -0.9
v -0.2 2.2 -0.9
v -0.2 2.4 -0.9
v -0.2 2.5 -0.9
v -0.2 2.6 -0.9
v -0.2 2.8 -0.9
v -0.2 2.9 -0.9
v -0.2 3 -0.9
v -0.2 3.2 -0.9
v 0.1 2.1 -0.9
v 0.1 2.2 -0.9
v 0.1 2.4 -0.9
v 0.1 2.5 -0.9
v 0.1 2.6 -0.9
v 0.1 2.8 -0.9
v 0.1 2.9 -0.9
v 0.1 3 -0.9
v 0.1 3.2 -0.9
v 0.2 2 -0.9
v 0.2 2.2 -0.9
v 0.2 2.5 -0.9
v 0.2 2.6 -0.9
v 0.2 2.9 -0.9
v 0.2 3 -0.9
v -0.4 1.9 -1
v -0.4 3.4 -1
v -0.3 2 -1
v -0.3 3.3 -1
v 0.2 2 -1
v 0.2 3.3 -1
v 0.3 1.9 -1
v 0.3 3.4 -1
v -0.2 0 -1.1
v -0.2 1.9 -1.1
v 0.1 0 -1.1
v 0.1 1.9 -1.1
v -0.4 1.9 -1.4
v -0.4 3.4 -1.4
v -0.2 0 -1.4
v -0.2 1.9 -1.4
v 0.1 0 -1.4
v 0.1 1.9 -1.4
v 0.3 1.9 -1.4
v 0.3 3.4 -1.4
v -0.2 0 -1.1
v 0.1 0 -1.1
v -0.2 0 -1.4
v 0.1 0 -1.4
v -0.4 1.9 -1
v 0.3 1.9 -1
v -0.2 1.9 -1.1
v 0.1 1.9 -1.1
v -0.4 1.9 -1.4
v -0.2 1.9 -1.4
v 0.1 1.9 -1.4
v 0.3 1.9 -1.4
v -0.3 2 -0.9
v 0.2 2 -0.9
v -0.3 2 -1
v 0.2 2 -1
v -0.3 2.2 -0.8
v -0.2 2.2 -0.8
v 0.1 2.2 -0.8
v 0.2 2.2 -0.8
v -0.3 2.2 -0.9
v -0.2 2.2 -0.9
v 0.1 2.2 -0.9
v 0.2 2.2 -0.9
v -0.3 2.3 -0.7
v -0.2 2.3 -0.7
v 0.1 2.3 -0.7
v 0.2 2.3 -0.7
v -0.3 2.3 -0.8
v -0.2 2.3 -0.8
v 0.1 2.3 -0.8
v 0.2 2.3 -0.8
v -0.2 2.4 -0.7
v 0.1 2.4 -0.7
v -0.2 2.4 -0.9
v 0.1 2.4 -0.9
v -0.3 2.6 -0.8
v -0.2 2.6 -0.8
v 0.1 2.6 -0.8
v 0.2 2.6 -0.8
v -0.3 2.6 -0.9
v -0.2 2.6 -0.9
v 0.1 2.6 -0.9
v 0.2 2.6 -0.9
v -0.3 2.7 -0.7
v -0.2 2.7 -0.7
v 0.1 2.7 -0.7
v 0.2 2.7 -0.7
v -0.3 2.7 -0.8
v -0.2 2.7 -0.8
v 0.1 2.7 -0.8
v 0.2 2.7 -0.8
v -0.2 2.8 -0.7
v 0.1 2.8 -0.7
v -0.2 2.8 -0.9
v 0.1 2.8 -0.9
v -0.3 3 -0.8
v -0.2 3 -0.8
v 0.1 3 -0.8
v 0.2 3 -0.8
v -0.3 3 -0.9
v -0.2 3 -0.9
v 0.1 3 -0.9
v 0.2 3 -0.9
v -0.3 3.1 -0.7
v -0.2 3.1 -0.7
v 0.1 3.1 -0.7
v 0.2 3.1 -0.7
v -0.3 3.1 -0.8
v -0.2 3.1 -0.8
v 0.1 3.1 -0.8
v 0.2 3.1 -0.8
v -0.2 3.2 -0.7
v 0.1 3.2 -0.7
v -0.2 3.2 -0.9
v 0.1 3.2 -0.9
v -0.3 2.5 -0.7
v 0.2 2.5 -0.7
v -0.3 2.5 -0.9
v -0.2 2.5 -0.9
v 0.1 2.5 -0.9
v 0.2 2.5 -0.9
v -0.3 2.9 -0.7
v 0.2 2.9 -0.7
v -0.3 2.9 -0.9
v -0.2 2.9 -0.9
v 0.1 2.9 -0.9
v 0.2 2.9 -0.9
v -0.3 3.3 -0.7
v 0.2 3.3 -0.7
v -0.3 3.3 -1
v 0.2 3.3 -1
v -0.4 3.4 -1
v 0.3 3.4 -1
v -0.4 3.4 -1.4
v 0.3 3.4 -1.4

# faces
f 3/6/1 2/6/1 1/6/1
f 4/6/1 2/6/1 3/6/1
f 8/6/1 6/6/1 5/6/1
f 10/6/1 8/6/1 7/6/1
f 11/6/1 10/6/1 9/6/1
f 12/6/1 6/6/1 8/6/1
f 12/6/1 10/6/1 11/6/1
f 12/6/1 8/6/1 10/6/1
f 14/6/1 6/6/1 12/6/1
f 16/6/1 14/6/1 13/6/1
f 17/6/1 16/6/1 15/6/1
f 18/6/1 6/6/1 14/6/1
f 18/6/1 16/6/1 17/6/1
f 18/6/1 14/6/1 16/6/1
f 20/6/1 6/6/1 18/6/1
f 22/6/1 20/6/1 19/6/1
f 23/6/1 22/6/1 21/6/1
f 24/6/1 6/6/1 20/6/1
f 24/6/1 22/6/1 23/6/1
f 24/6/1 20/6/1 22/6/1
f 27/6/1 26/6/1 25/6/1
f 28/6/1 26/6/1 27/6/1
f 32/6/1 30/6/1 29/6/1
f 33/6/1 32/6/1 31/6/1
f 34/6/1 30/6/1 32/6/1
f 34/6/1 32/6/1 33/6/1
f 38/6/1 36/6/1 35/6/1
f 39/6/1 38/6/1 37/6/1
f 40/6/1 36/6/1 38/6/1
f 40/6/1 38/6/1 39/6/1
f 44/6/1 42/6/1 41/6/1
f 45/6/1 44/6/1 43/6/1
f 46/6/1 42/6/1 44/6/1
f 46/6/1 44/6/1 45/6/1
f 47/6/2 48/6/2 50/6/2
f 49/6/2 50/6/2 51/6/2
f 50/6/2 48/6/2 52/6/2
f 51/6/2 50/6/2 52/6/2
f 53/6/2 54/6/2 56/6/2
f 55/6/2 56/6/2 57/6/2
f 56/6/2 54/6/2 58/6/2
f 57/6/2 56/6/2 58/6/2
f 59/6/2 60/6/2 62/6/2
f 61/6/2 62/6/2 63/6/2
f 62/6/2 60/6/2 64/6/2
f 63/6/2 62/6/2 64/6/2
f 65/6/2 66/6/2 67/6/2
f 67/6/2 66/6/2 68/6/2
f 69/6/2 70/6/2 72/6/2
f 71/6/2 72/6/2 74/6/2
f 73/6/2 74/6/2 75/6/2
f 72/6/2 70/6/2 76/6/2
f 75/6/2 74/6/2 76/6/2
f 74/6/2 72/6/2 76/6/2
f 76/6/2 70/6/2 78/6/2
f 77/6/2 78/6/2 80/6/2
f 79/6/2 80/6/2 81/6/2
f 78/6/2 70/6/2 82/6/2
f 81/6/2 80/6/2 82/6/2
f 80/6/2 78/6/2 82/6/2
f 82/6/2 70/6/2 84/6/2
f 83/6/2 84/6/2 86/6/2
f 85/6/2 86/6/2 87/6/2
f 84/6/2 70/6/2 88/6/2
f 87/6/2 86/6/2 88/6/2
f 86/6/2 84/6/2 88/6/2
f 89/6/2 90/6/2 91/6/2
f 91/6/2 90/6/2 92/6/2
f 99/6/3 94/6/3 93/6/3
f 100/6/3 94/6/3 99/6/3
f 101/6/3 96/6/3 95/6/3
f 102/6/3 96/6/3 101/6/3
f 103/6/3 98/6/3 97/6/3
f 104/6/3 98/6/3 103/6/3
f 106/6/3 94/6/3 100/6/3
f 108/6/3 96/6/3 102/6/3
f 110/6/3 98/6/3 104/6/3
f 111/6/3 106/6/3 105/6/3
f 112/6/3 94/6/3 106/6/3
f 112/6/3 106/6/3 111/6/3
f 113/6/3 108/6/3 107/6/3
f 114/6/3 96/6/3 108/6/3
f 114/6/3 108/6/3 113/6/3
f 115/6/3 110/6/3 109/6/3
f 116/6/3 98/6/3 110/6/3
f 116/6/3 110/6/3 115/6/3
f 123/6/3 118/6/3 117/6/3
f 124/6/3 118/6/3 123/6/3
f 125/6/3 120/6/3 119/6/3
f 126/6/3 120/6/3 125/6/3
f 127/6/3 122/6/3 121/6/3
f 128/6/3 122/6/3 127/6/3
f 135/6/3 130/6/3 129/6/3
f 136/6/3 130/6/3 135/6/3
f 137/6/3 132/6/3 131/6/3
f 138/6/3 132/6/3 137/6/3
f 139/6/3 134/6/3 133/6/3
f 140/6/3 134/6/3 139/6/3
f 147/6/3 142/6/3 141/6/3
f 148/6/3 142/6/3 147/6/3
f 150/6/3 144/6/3 143/6/3
f 151/6/3 144/6/3 150/6/3
f 153/6/3 146/6/3 145/6/3
f 154/6/3 146/6/3 153/6/3
f 156/3/3 149/3/3 148/3/3
f 156/6/3 147/6/3 141/6/3
f 156/3/3 148/3/3 147/3/3
f 157/3/3 149/3/3 156/3/3
f 158/3/3 149/3/3 157/3/3
f 159/2/3 152/2/3 151/2/3
f 159/2/3 151/2/3 150/2/3
f 160/2/3 152/2/3 159/2/3
f 161/2/3 152/2/3 160/2/3
f 162/1/3 155/1/3 154/1/3
f 162/1/3 154/1/3 153/1/3
f 163/1/3 155/1/3 162/1/3
f 164/1/3 155/1/3 163/1/3
f 165/6/3 157/6/3 156/6/3
f 165/6/3 156/6/3 141/6/3
f 166/6/3 157/6/3 165/6/3
f 167/6/3 160/6/3 159/6/3
f 168/6/3 160/6/3 167/6/3
f 169/6/3 163/6/3 162/6/3
f 170/6/3 163/6/3 169/6/3
f 173/6/3 172/6/3 171/6/3
f 174/6/3 172/6/3 173/6/3
f 175/6/3 173/6/3 171/6/3
f 176/6/3 172/6/3 174/6/3
f 177/6/3 175/6/3 171/6/3
f 177/6/3 176/6/3 175/6/3
f 178/6/3 172/6/3 176/6/3
f 178/6/3 176/6/3 177/6/3
f 181/6/3 180/6/3 179/6/3
f 182/6/3 180/6/3 181/6/3
f 183/6/4 184/6/4 186/6/4
f 185/6/4 186/6/4 187/6/4
f 186/6/4 184/6/4 188/6/4
f 187/6/4 186/6/4 188/6/4
f 188/6/4 184/6/4 189/6/4
f 189/6/4 184/6/4 190/6/4
f 193/6/5 192/6/5 191/6/5
f 194/6/5 192/6/5 193/6/5
f 197/6/5 196/6/5 195/6/5
f 198/6/5 196/6/5 197/6/5
f 199/6/5 197/6/5 195/6/5
f 200/6/5 197/6/5 199/6/5
f 201/6/5 196/6/5 198/6/5
f 202/6/5 196/6/5 201/6/5
f 205/6/5 204/6/5 203/6/5
f 206/6/5 204/6/5 205/6/5
f 211/6/5 208/6/5 207/6/5
f 212/6/5 208/6/5 211/6/5
f 213/6/5 210/6/5 209/6/5
f 214/6/5 210/6/5 213/6/5
f 219/6/5 216/6/5 215/6/5
f 220/6/5 216/6/5 219/6/5
f 221/6/5 218/6/5 217/6/5
f 222/6/5 218/6/5 221/6/5
f 225/6/5 224/6/5 223/6/5
f 226/6/5 224/6/5 225/6/5
f 231/6/5 228/6/5 227/6/5
f 232/6/5 228/6/5 231/6/5
f 233/6/5 230/6/5 229/6/5
f 234/6/5 230/6/5 233/6/5
f 239/6/5 236/6/5 235/6/5
f 240/6/5 236/6/5 239/6/5
f 241/6/5 238/6/5 237/6/5
f 242/6/5 238/6/5 241/6/5
f 245/6/5 244/6/5 243/6/5
f 246/6/5 244/6/5 245/6/5
f 251/6/5 248/6/5 247/6/5
f 252/6/5 248/6/5 251/6/5
f 253/6/5 250/6/5 249/6/5
f 254/6/5 250/6/5 253/6/5
f 259/6/5 256/6/5 255/6/5
f 260/6/5 256/6/5 259/6/5
f 261/6/5 258/6/5 257/6/5
f 262/6/5 258/6/5 261/6/5
f 265/6/5 264/6/5 263/6/5
f 266/6/5 264/6/5 265/6/5
f 267/6/6 268/6/6 269/6/6
f 269/6/6 268/6/6 270/6/6
f 270/6/6 268/6/6 271/6/6
f 271/6/6 268/6/6 272/6/6
f 273/6/6 274/6/6 275/6/6
f 275/6/6 274/6/6 276/6/6
f 276/6/6 274/6/6 277/6/6
f 277/6/6 274/6/6 278/6/6
f 279/6/6 280/6/6 281/6/6
f 281/6/6 280/6/6 282/6/6
f 283/6/6 284/6/6 285/6/6
f 285/6/6 284/6/6 286/6/6
