# Blender v2.90.1 OBJ File: ''
# www.blender.org
mtllib poplar3.mtl
o Poplar3
v -0.026483 0.116441 -0.017174
v 0.142525 0.039186 5.338085
v 0.205765 0.010336 5.282053
v 0.057086 0.082385 -0.002039
v 0.211540 -0.124833 5.320756
v -0.021323 -0.107763 0.015276
v 0.059786 -0.075740 0.020609
v 0.143512 -0.152271 5.338910
v 0.071853 -0.129489 5.367156
v -0.141244 0.004755 -0.015439
v -0.104459 -0.074665 0.000418
v 0.046321 -0.057143 5.400838
v -0.109082 0.084189 -0.022808
v 0.078037 0.011455 5.388532
v 0.092382 0.002735 0.013518
v 0.236846 -0.058870 5.287278
v 0.155571 0.045738 1.830883
v -0.156779 -0.536664 2.051173
v -0.454266 0.285350 1.903560
v -0.409669 -0.948737 2.573629
v 0.172368 -1.092545 2.597012
v 0.098052 0.832641 1.961757
v 0.794239 0.234079 2.026978
v 0.549667 -0.579264 2.100072
v -0.058563 -1.115460 4.098080
v -0.928683 0.521992 2.414936
v -0.633244 -0.432917 2.391253
v -0.997892 0.004831 3.857611
v 0.036474 1.464160 2.476101
v -0.674112 1.161177 2.279066
v -0.165833 1.138698 4.315712
v 1.349185 0.423362 2.480799
v 0.802048 1.090469 2.388342
v 1.125586 0.858363 4.189354
v 0.881532 -0.998301 2.604880
v 1.321706 -0.404271 2.489705
v 1.153204 -0.655623 3.884391
v -0.727649 -0.776227 3.921722
v -0.721391 0.781776 4.036434
v 0.490957 1.340098 4.245522
v 1.382341 0.075397 3.935715
v 0.574862 -1.139391 3.988639
v -0.704544 -0.316632 5.695278
v -0.307998 -0.746359 5.868228
v -0.117597 -0.108866 6.715751
v -0.281317 0.877602 5.570622
v -0.600368 0.280646 5.772562
v 0.075589 0.467129 6.702888
v 0.902738 0.885793 5.530048
v 0.394532 0.996423 5.662989
v 0.651216 0.666500 6.670818
v 1.181627 -0.240897 5.598110
v 1.210685 0.291569 5.720146
v 0.844509 0.005849 6.705824
v 0.238987 -0.913169 5.686367
v 0.803955 -0.696225 5.802607
v 0.365830 -0.392311 6.731106
v 0.424039 0.028441 7.613794
vt 0.000000 0.000000
vt 0.000000 0.000000
vt 0.000000 0.000000
vt 0.000000 0.000000
vt 0.000000 0.000000
vt 0.000000 0.000000
vt 0.000000 0.000000
vt 0.000000 0.000000
vt 0.000000 0.000000
vt 0.000000 0.000000
vt 0.000000 0.000000
vt 0.000000 0.000000
vt 0.000000 0.000000
vt 0.000000 0.000000
vt 0.000000 0.000000
vt 0.000000 0.000000
vt 0.817871 0.000000
vt 0.772461 0.079102
vt 0.863281 0.079102
vt 0.727051 0.157715
vt 0.681641 0.079102
vt 0.636230 0.157715
vt 0.090881 0.000000
vt 0.045441 0.079102
vt 0.136353 0.079102
vt 0.272705 0.000000
vt 0.227173 0.079102
vt 0.318115 0.079102
vt 0.454346 0.000000
vt 0.408936 0.079102
vt 0.499756 0.079102
vt 0.681641 0.236328
vt 0.908691 0.157715
vt 0.817871 0.157715
vt 0.863281 0.236328
vt 0.181763 0.157715
vt 0.090881 0.157715
vt 0.136353 0.236328
vt 0.363525 0.157715
vt 0.272705 0.157715
vt 0.318115 0.236328
vt 0.545410 0.157715
vt 0.454346 0.157715
vt 0.499756 0.236328
vt 0.772461 0.236328
vt 0.954102 0.236328
vt 0.227173 0.236328
vt 0.408936 0.236328
vt 0.590820 0.236328
vt 0.817871 0.314941
vt 0.727051 0.314941
vt 0.772461 0.394043
vt 1.000000 0.314941
vt 0.908691 0.314941
vt 0.954102 0.394043
vt 0.272705 0.314941
vt 0.181763 0.314941
vt 0.227173 0.394043
vt 0.454346 0.314941
vt 0.363525 0.314941
vt 0.408936 0.394043
vt 0.636230 0.314941
vt 0.545410 0.314941
vt 0.590820 0.394043
vt 0.499756 0.394043
vt 0.545410 0.472656
vt 0.318115 0.394043
vt 0.363525 0.472656
vt 0.136353 0.394043
vt 0.181763 0.472656
vt 0.090881 0.314941
vt 0.863281 0.394043
vt 0.908691 0.472656
vt 0.681641 0.394043
vt 0.727051 0.472656
vt 0.045441 0.236328
vt 0.000000 0.157715
vt 0.590820 0.079102
vt 0.636230 0.000000
vn 0.3930 0.9196 0.0000
vn 0.3930 0.9195 -0.0000
vn 0.3700 -0.9289 -0.0157
vn -0.9221 -0.3862 0.0236
vn -0.3699 0.9288 0.0236
vn 0.9152 0.4024 -0.0236
vn 0.9152 0.4024 -0.0237
vn 0.9247 -0.3794 -0.0316
vn -0.3398 -0.9405 -0.0000
vn -0.3399 -0.9405 0.0000
vn -0.9147 0.4022 0.0394
vn -0.2129 -0.2444 -0.9460
vn -0.1575 -0.7403 -0.6536
vn -0.0552 0.1578 -0.9859
vn 0.2444 0.1735 -0.9540
vn 0.2444 0.1734 -0.9540
vn 0.3392 -0.1815 -0.9230
vn -0.2366 -0.9700 -0.0552
vn -0.9449 -0.2913 -0.1496
vn -0.4160 0.9027 0.1099
vn 0.7766 0.6276 -0.0549
vn 0.8019 -0.5975 -0.0079
vn -0.4566 -0.8896 0.0079
vn -0.9439 0.3225 0.0708
vn -0.2751 0.9510 0.1415
vn 0.9530 0.2993 0.0473
vn 0.9540 0.2959 0.0475
vn 0.9546 0.2940 0.0469
vn 0.6482 -0.7588 0.0632
vn -0.7235 -0.4639 0.5111
vn -0.7312 0.5343 0.4242
vn 0.2701 0.9330 0.2379
vn 0.2708 0.9326 0.2386
vn 0.2670 0.9345 0.2356
vn 0.9412 -0.1254 0.3137
vn 0.2526 -0.8762 0.4104
vn 0.6202 -0.7222 0.3062
vn 0.5730 -0.6594 0.4867
vn 0.7937 -0.4950 0.3536
vn 0.8735 0.2754 0.4014
vn 0.8735 0.2755 0.4013
vn 0.8128 0.5129 0.2762
vn -0.2602 0.8279 0.4968
vn -0.2830 0.8883 0.3616
vn -0.2119 0.8950 0.3925
vn -0.8357 0.2917 0.4652
vn -0.8017 0.2830 0.5266
vn -0.8731 0.0865 0.4798
vn -0.4743 -0.7826 0.4032
vn -0.4173 -0.6771 0.6062
vn -0.1181 -0.8818 0.4566
vn 0.3153 -0.9300 0.1891
vn 0.6461 -0.7564 0.1024
vn 0.7890 -0.5996 0.1341
vn 0.9916 -0.0787 0.1023
vn 0.9548 0.2920 0.0552
vn 0.8614 0.4899 0.1343
vn 0.2685 0.9317 0.2448
vn -0.2684 0.9394 0.2132
vn -0.1974 0.9634 0.1816
vn -0.8344 0.5117 0.2047
vn -0.9427 0.2985 0.1493
vn -0.9723 0.1490 0.1803
vn -0.7566 -0.6305 0.1734
vn -0.4722 -0.8736 0.1180
vn -0.2356 -0.9578 0.1649
vn 0.9529 -0.2974 0.0591
vn 0.9529 -0.2974 0.0592
vn 0.9526 -0.2991 0.0551
vn 0.9522 -0.2991 0.0629
vn 0.9990 -0.0315 -0.0315
vn 0.6078 0.7893 0.0868
vn 0.6062 0.7952 -0.0078
vn 0.4340 0.8997 -0.0474
vn -0.5742 0.8102 0.1180
vn -0.5888 0.7929 0.1571
vn -0.9238 0.3790 0.0552
vn -0.9444 -0.3148 0.0944
vn -0.9345 -0.3298 -0.1335
vn -0.8860 -0.4391 -0.1490
vn -0.0157 -0.9919 0.1259
vn -0.0393 -0.9989 -0.0236
vn 0.1334 -0.9885 -0.0706
vn 0.4799 -0.4957 -0.7239
vn 0.4798 -0.2202 -0.8493
vn 0.6367 -0.0315 -0.7704
vn 0.6368 -0.0315 -0.7704
vn 0.5301 0.3245 -0.7834
vn 0.3863 0.3547 -0.8514
vn 0.2199 0.6284 -0.7462
vn -0.0549 0.6276 -0.7766
vn -0.2363 0.3308 -0.9136
vn -0.6976 0.1254 -0.7054
vn 0.1021 -0.7304 -0.6754
vn 0.0078 -0.6991 -0.7150
vn 0.0393 -0.3697 -0.9283
vn -0.7640 -0.2205 -0.6064
vn -0.5925 -0.3476 -0.7268
vn -0.5752 -0.4806 -0.6619
usemtl PoplarTrunc.002
s 1
f 1/1/1 2/2/1 3/3/1
f 1/1/2 3/3/2 4/4/2
f 5/5/3 6/6/3 7/7/3
f 6/6/3 5/5/3 8/8/3
f 9/9/4 10/10/4 11/11/4
f 10/10/4 9/9/4 12/12/4
f 13/13/5 2/2/5 1/1/5
f 2/2/5 13/13/5 14/14/5
f 15/15/6 3/3/7 16/16/7
f 3/3/7 15/15/6 4/4/6
f 7/7/8 16/16/8 5/5/8
f 16/16/8 7/7/8 15/15/8
f 8/8/9 11/11/10 6/6/9
f 11/11/10 8/8/9 9/9/9
f 14/14/11 10/10/11 12/12/11
f 10/10/11 14/14/11 13/13/11
usemtl PoplarLeaves.002
f 17/17/12 18/18/12 19/19/12
f 20/20/13 18/21/13 21/22/13
f 17/23/14 19/24/14 22/25/14
f 17/26/15 22/27/16 23/28/15
f 17/29/17 23/30/17 24/31/17
f 20/20/18 21/22/18 25/32/18
f 26/33/19 27/34/19 28/35/19
f 29/36/20 30/37/20 31/38/20
f 32/39/21 33/40/21 34/41/21
f 35/42/22 36/43/22 37/44/22
f 20/20/23 25/32/23 38/45/23
f 26/33/24 28/35/24 39/46/24
f 29/36/25 31/38/25 40/47/25
f 32/39/26 34/41/27 41/48/28
f 35/42/29 37/44/29 42/49/29
f 43/50/30 44/51/30 45/52/30
f 46/53/31 47/54/31 48/55/31
f 49/56/32 50/57/33 51/58/34
f 52/59/35 53/60/35 54/61/35
f 55/62/36 56/63/36 57/64/36
f 57/64/37 54/65/37 58/66/37
f 57/64/38 56/63/38 54/65/38
f 56/63/39 52/59/39 54/65/39
f 54/61/40 51/67/41 58/68/40
f 54/61/40 53/60/40 51/67/41
f 53/60/42 49/56/42 51/67/42
f 51/58/43 48/69/43 58/70/43
f 51/58/44 50/57/44 48/69/44
f 50/57/45 46/71/45 48/69/45
f 48/55/46 45/72/46 58/73/46
f 48/55/47 47/54/47 45/72/47
f 47/54/48 43/50/48 45/72/48
f 45/52/49 57/74/49 58/75/49
f 45/52/50 44/51/50 57/74/50
f 44/51/51 55/62/51 57/74/51
f 42/49/52 56/63/52 55/62/52
f 42/49/53 37/44/53 56/63/53
f 37/44/54 52/59/54 56/63/54
f 41/48/55 53/60/55 52/59/55
f 41/48/28 34/41/27 53/60/56
f 34/41/57 49/56/57 53/60/57
f 40/47/58 50/57/33 49/56/32
f 40/47/59 31/38/59 50/57/59
f 31/38/60 46/71/60 50/57/60
f 39/46/61 47/54/61 46/53/61
f 39/46/62 28/35/62 47/54/62
f 28/35/63 43/50/63 47/54/63
f 38/45/64 44/51/64 43/50/64
f 38/45/65 25/32/65 44/51/65
f 25/32/66 55/62/66 44/51/66
f 37/44/67 41/48/68 52/59/69
f 37/44/67 36/43/70 41/48/68
f 36/43/71 32/39/71 41/48/71
f 34/41/72 40/47/72 49/56/72
f 34/41/73 33/40/73 40/47/73
f 33/40/74 29/36/74 40/47/74
f 31/38/75 39/76/75 46/71/75
f 31/38/76 30/37/76 39/76/76
f 30/37/77 26/77/77 39/76/77
f 28/35/78 38/45/78 43/50/78
f 28/35/79 27/34/79 38/45/79
f 27/34/80 20/20/80 38/45/80
f 25/32/81 42/49/81 55/62/81
f 25/32/82 21/22/82 42/49/82
f 21/22/83 35/42/83 42/49/83
f 24/31/84 36/43/84 35/42/84
f 24/31/85 23/30/85 36/43/85
f 23/30/86 32/39/86 36/43/87
f 23/28/88 33/40/88 32/39/88
f 23/28/89 22/27/89 33/40/89
f 22/27/90 29/36/90 33/40/90
f 22/25/91 30/37/91 29/36/91
f 22/25/92 19/24/92 30/37/92
f 19/24/93 26/77/93 30/37/93
f 21/22/94 24/78/94 35/42/94
f 21/22/95 18/21/95 24/78/95
f 18/21/96 17/79/96 24/78/96
f 19/19/97 27/34/97 26/33/97
f 19/19/98 18/18/98 27/34/98
f 18/18/99 20/20/99 27/34/99
