# Blender v2.90.1 OBJ File: ''
# www.blender.org
mtllib poplar2.mtl
o Poplar2
v 0.061540 0.070949 -0.000505
v 0.069193 0.283605 5.548005
v 0.140602 0.260188 5.548307
v -0.012316 0.100293 -0.000921
v 0.067673 0.113484 5.547384
v 0.061540 -0.070610 0.000841
v 0.140162 0.137835 5.547863
v -0.012326 -0.099943 0.000982
v -0.116728 0.000164 -0.000268
v -0.004993 0.137777 5.547007
v -0.032961 0.197760 5.547030
v -0.086162 -0.070604 0.000503
v -0.002767 0.256878 5.547457
v -0.086148 0.070943 -0.000840
v 0.170170 0.199054 5.548231
v 0.092140 0.000164 0.000207
v 0.027030 -0.063172 1.512582
v -0.296557 -0.512101 1.789778
v -0.565949 0.113189 1.678432
v -0.519718 -0.787370 2.317584
v 0.091442 -0.933136 2.258541
v 0.008993 0.535322 1.665809
v 0.722904 0.133125 1.727799
v 0.472609 -0.523520 1.789374
v -0.194763 -0.948033 3.229937
v -0.989707 0.295047 2.202267
v -0.690097 -0.251747 2.311909
v -1.224751 0.033217 3.240424
v -0.005426 0.979043 2.153805
v -0.648419 0.731540 2.034689
v -0.345601 0.933753 3.285275
v 1.218803 0.298247 2.220236
v 0.699366 0.756774 2.078862
v 1.116748 0.748535 3.238328
v 0.817786 -0.810388 2.300604
v 1.213455 -0.331070 2.233327
v 1.206447 -0.527646 3.128958
v -0.936382 -0.586732 3.255179
v -0.916857 0.619488 3.200457
v 0.405637 1.105689 3.289906
v 1.426457 0.101924 3.183132
v 0.578062 -0.950432 3.203188
v -0.941067 -0.123949 5.069759
v -0.436071 -0.489099 5.551044
v -0.025983 0.405693 7.583957
v -0.498036 0.955364 5.019350
v -0.779657 0.471928 5.509114
v 0.104163 0.791671 7.573836
v 0.848328 0.967430 4.982342
v 0.274312 1.086777 5.365930
v 0.486941 0.919811 7.559612
v 1.240990 -0.108581 5.018578
v 1.180086 0.480439 5.477365
v 0.614816 0.480137 7.583270
v 0.147865 -0.772732 5.059139
v 0.779072 -0.484556 5.536949
v 0.292656 0.222112 7.591944
v 0.352596 0.572567 8.093250
vt 0.000000 0.000000
vt 0.000000 0.000000
vt 0.000000 0.000000
vt 0.000000 0.000000
vt 0.000000 0.000000
vt 0.000000 0.000000
vt 0.000000 0.000000
vt 0.000000 0.000000
vt 0.000000 0.000000
vt 0.000000 0.000000
vt 0.000000 0.000000
vt 0.000000 0.000000
vt 0.000000 0.000000
vt 0.000000 0.000000
vt 0.000000 0.000000
vt 0.000000 0.000000
vt 0.817871 0.000000
vt 0.772461 0.079102
vt 0.863281 0.079102
vt 0.727051 0.157715
vt 0.681641 0.079102
vt 0.636230 0.157715
vt 0.090881 0.000000
vt 0.045441 0.079102
vt 0.136353 0.079102
vt 0.272705 0.000000
vt 0.227173 0.079102
vt 0.318115 0.079102
vt 0.454346 0.000000
vt 0.408936 0.079102
vt 0.499756 0.079102
vt 0.681641 0.236328
vt 0.908691 0.157715
vt 0.817871 0.157715
vt 0.863281 0.236328
vt 0.181763 0.157715
vt 0.090881 0.157715
vt 0.136353 0.236328
vt 0.363525 0.157715
vt 0.272705 0.157715
vt 0.318115 0.236328
vt 0.545410 0.157715
vt 0.454346 0.157715
vt 0.499756 0.236328
vt 0.772461 0.236328
vt 0.954102 0.236328
vt 0.227173 0.236328
vt 0.408936 0.236328
vt 0.590820 0.236328
vt 0.817871 0.314941
vt 0.727051 0.314941
vt 0.772461 0.394043
vt 1.000000 0.314941
vt 0.908691 0.314941
vt 0.954102 0.394043
vt 0.272705 0.314941
vt 0.181763 0.314941
vt 0.227173 0.394043
vt 0.454346 0.314941
vt 0.363525 0.314941
vt 0.408936 0.394043
vt 0.636230 0.314941
vt 0.545410 0.314941
vt 0.590820 0.394043
vt 0.499756 0.394043
vt 0.545410 0.472656
vt 0.318115 0.394043
vt 0.363525 0.472656
vt 0.136353 0.394043
vt 0.181763 0.472656
vt 0.090881 0.314941
vt 0.863281 0.394043
vt 0.908691 0.472656
vt 0.681641 0.394043
vt 0.727051 0.472656
vt 0.045441 0.236328
vt 0.000000 0.157715
vt 0.590820 0.079102
vt 0.636230 0.000000
vn 0.3396 0.9397 -0.0395
vn 0.3396 0.9398 -0.0395
vn 0.3466 -0.9375 0.0315
vn -0.9120 -0.4089 0.0315
vn -0.9121 -0.4089 0.0314
vn -0.9120 -0.4089 0.0314
vn -0.9121 -0.4089 0.0315
vn -0.3631 0.9314 -0.0237
vn -0.3631 0.9315 -0.0237
vn 0.9093 0.4155 -0.0235
vn 0.9082 -0.4186 0.0000
vn 0.9082 -0.4185 0.0000
vn -0.3465 -0.9372 0.0394
vn -0.9052 0.4250 -0.0000
vn -0.9052 0.4251 -0.0000
vn -0.3385 -0.3070 -0.8895
vn -0.2446 -0.8128 -0.5287
vn -0.1966 0.2360 -0.9517
vn 0.2199 0.2514 -0.9426
vn 0.3459 -0.2201 -0.9121
vn -0.2361 -0.9679 -0.0865
vn -0.8059 -0.5056 -0.3081
vn -0.3459 0.9356 -0.0708
vn 0.6790 0.6948 -0.2370
vn 0.7536 -0.6437 -0.1334
vn -0.4409 -0.8976 -0.0000
vn -0.8846 0.4581 -0.0869
vn -0.2202 0.9750 -0.0314
vn 0.8944 0.4353 -0.1029
vn 0.5600 -0.8282 0.0236
vn -0.7533 -0.5336 0.3845
vn -0.7329 0.6462 0.2128
vn 0.2367 0.9704 0.0474
vn 0.9603 -0.1023 0.2597
vn 0.1576 -0.9217 0.3545
vn 0.5741 -0.7000 0.4247
vn 0.5822 -0.7159 0.3854
vn 0.7851 -0.5338 0.3140
vn 0.8735 0.2754 0.4013
vn 0.9258 0.2825 0.2511
vn 0.7622 0.6365 0.1179
vn -0.2605 0.8368 0.4816
vn -0.3146 0.9437 0.1022
vn -0.2131 0.9708 0.1105
vn -0.8110 0.2835 0.5118
vn -0.8918 0.3078 0.3315
vn -0.9405 0.0000 0.3398
vn -0.4256 -0.7173 0.5517
vn -0.4558 -0.7781 0.4323
vn -0.1336 -0.9196 0.3694
vn 0.3075 -0.9384 0.1577
vn 0.5652 -0.8165 0.1178
vn 0.7155 -0.6841 0.1415
vn 0.9944 0.0236 0.1026
vn 0.9019 0.4313 0.0236
vn 0.8010 0.5968 0.0471
vn 0.2202 0.9752 0.0236
vn -0.2203 0.9754 -0.0079
vn -0.1579 0.9872 -0.0237
vn -0.8191 0.5670 0.0866
vn -0.8820 0.4646 0.0788
vn -0.9760 0.1417 0.1653
vn -0.6836 -0.7071 0.1807
vn -0.4337 -0.8910 0.1340
vn -0.3221 -0.9349 0.1493
vn 0.9424 -0.3299 0.0550
vn 0.9444 -0.3227 -0.0630
vn 0.9770 -0.0158 -0.2127
vn 0.4467 0.8934 -0.0470
vn 0.4327 0.8890 -0.1495
vn 0.2762 0.9389 -0.2052
vn -0.4715 0.8801 -0.0550
vn -0.4815 0.8761 -0.0237
vn -0.8030 0.5825 -0.1260
vn -0.9034 -0.4164 0.1021
vn -0.8416 -0.4011 -0.3618
vn -0.8953 -0.2905 -0.3377
vn -0.0000 -0.9955 0.0947
vn 0.0000 -0.9999 -0.0157
vn 0.1736 -0.9786 -0.1105
vn 0.5326 -0.5323 -0.6580
vn 0.5445 -0.2841 -0.7892
vn 0.7069 -0.0235 -0.7069
vn 0.5676 0.4178 -0.7095
vn 0.3372 0.4704 -0.8155
vn 0.1576 0.7328 -0.6619
vn -0.1568 0.7289 -0.6665
vn -0.3388 0.4333 -0.8351
vn -0.6921 0.2909 -0.6606
vn 0.1659 -0.8057 -0.5687
vn -0.0079 -0.7491 -0.6624
vn -0.0079 -0.5214 -0.8533
vn -0.7506 -0.4979 -0.4344
vn -0.8111 -0.4252 -0.4016
vn -0.8295 -0.2686 -0.4897
usemtl PoplarTrunc.001
s 1
f 1/1/1 2/2/1 3/3/2
f 2/2/1 1/1/1 4/4/1
f 5/5/3 6/6/3 7/7/3
f 6/6/3 5/5/3 8/8/3
f 9/9/4 10/10/5 11/11/6
f 10/10/5 9/9/4 12/12/7
f 4/4/8 13/13/8 2/2/9
f 13/13/8 4/4/8 14/14/8
f 15/15/10 1/1/10 3/3/10
f 1/1/10 15/15/10 16/16/10
f 7/7/11 16/16/11 15/15/11
f 16/16/12 7/7/12 6/6/12
f 10/10/13 8/8/13 5/5/13
f 8/8/13 10/10/13 12/12/13
f 14/14/14 11/11/15 13/13/14
f 11/11/15 14/14/14 9/9/15
usemtl PoplarLeaves.001
f 17/17/16 18/18/16 19/19/16
f 20/20/17 18/21/17 21/22/17
f 17/23/18 19/24/18 22/25/18
f 17/26/19 22/27/19 23/28/19
f 17/29/20 23/30/20 24/31/20
f 20/20/21 21/22/21 25/32/21
f 26/33/22 27/34/22 28/35/22
f 29/36/23 30/37/23 31/38/23
f 32/39/24 33/40/24 34/41/24
f 35/42/25 36/43/25 37/44/25
f 20/20/26 25/32/26 38/45/26
f 26/33/27 28/35/27 39/46/27
f 29/36/28 31/38/28 40/47/28
f 32/39/29 34/41/29 41/48/29
f 35/42/30 37/44/30 42/49/30
f 43/50/31 44/51/31 45/52/31
f 46/53/32 47/54/32 48/55/32
f 49/56/33 50/57/33 51/58/33
f 52/59/34 53/60/34 54/61/34
f 55/62/35 56/63/35 57/64/35
f 57/64/36 54/65/36 58/66/36
f 57/64/37 56/63/37 54/65/37
f 56/63/38 52/59/38 54/65/38
f 54/61/39 51/67/39 58/68/39
f 54/61/40 53/60/40 51/67/40
f 53/60/41 49/56/41 51/67/41
f 51/58/42 48/69/42 58/70/42
f 51/58/43 50/57/43 48/69/43
f 50/57/44 46/71/44 48/69/44
f 48/55/45 45/72/45 58/73/45
f 48/55/46 47/54/46 45/72/46
f 47/54/47 43/50/47 45/72/47
f 45/52/48 57/74/48 58/75/48
f 45/52/49 44/51/49 57/74/49
f 44/51/50 55/62/50 57/74/50
f 42/49/51 56/63/51 55/62/51
f 42/49/52 37/44/52 56/63/52
f 37/44/53 52/59/53 56/63/53
f 41/48/54 53/60/54 52/59/54
f 41/48/55 34/41/55 53/60/55
f 34/41/56 49/56/56 53/60/56
f 40/47/57 50/57/57 49/56/57
f 40/47/58 31/38/58 50/57/58
f 31/38/59 46/71/59 50/57/59
f 39/46/60 47/54/60 46/53/60
f 39/46/61 28/35/61 47/54/61
f 28/35/62 43/50/62 47/54/62
f 38/45/63 44/51/63 43/50/63
f 38/45/64 25/32/64 44/51/64
f 25/32/65 55/62/65 44/51/65
f 37/44/66 41/48/66 52/59/66
f 37/44/67 36/43/67 41/48/67
f 36/43/68 32/39/68 41/48/68
f 34/41/69 40/47/69 49/56/69
f 34/41/70 33/40/70 40/47/70
f 33/40/71 29/36/71 40/47/71
f 31/38/72 39/76/72 46/71/72
f 31/38/73 30/37/73 39/76/73
f 30/37/74 26/77/74 39/76/74
f 28/35/75 38/45/75 43/50/75
f 28/35/76 27/34/76 38/45/76
f 27/34/77 20/20/77 38/45/77
f 25/32/78 42/49/78 55/62/78
f 25/32/79 21/22/79 42/49/79
f 21/22/80 35/42/80 42/49/80
f 24/31/81 36/43/81 35/42/81
f 24/31/82 23/30/82 36/43/82
f 23/30/83 32/39/83 36/43/83
f 23/28/84 33/40/84 32/39/84
f 23/28/85 22/27/85 33/40/85
f 22/27/86 29/36/86 33/40/86
f 22/25/87 30/37/87 29/36/87
f 22/25/88 19/24/88 30/37/88
f 19/24/89 26/77/89 30/37/89
f 21/22/90 24/78/90 35/42/90
f 21/22/91 18/21/91 24/78/91
f 18/21/92 17/79/92 24/78/92
f 19/19/93 27/34/93 26/33/93
f 19/19/94 18/18/94 27/34/94
f 18/18/95 20/20/95 27/34/95
