# Blender v2.90.1 OBJ File: ''
# www.blender.org
mtllib poplar4.mtl
o Poplar4
v 0.061900 0.061900 -0.000000
v 0.101552 0.002999 6.059164
v 0.147658 -0.019140 6.059515
v 0.000000 0.087539 -0.000000
v 0.111830 -0.121766 6.055551
v 0.061900 -0.061900 -0.000000
v 0.155000 -0.107271 6.056955
v 0.000000 -0.087539 -0.000000
v 0.065812 -0.099730 6.055163
v -0.087539 -0.000000 0.000000
v -0.061900 -0.061900 0.000000
v 0.043838 -0.054003 6.056046
v 0.058616 -0.011419 6.057713
v -0.061900 0.061900 0.000000
v 0.087539 -0.000000 -0.000000
v 0.169866 -0.064791 6.058586
v 0.004072 -0.056651 1.506761
v -0.303931 -0.442572 1.919948
v -0.490626 0.052781 1.814515
v -0.497706 -0.659450 2.589303
v -0.024098 -0.726765 2.606925
v -0.043594 0.412147 1.888704
v 0.442590 0.103152 1.995037
v 0.280771 -0.414960 2.024712
v -0.194348 -0.709698 3.748818
v -0.837511 0.143149 2.518708
v -0.772489 -0.308693 2.393727
v -0.893076 -0.058936 3.846194
v -0.145382 0.695180 2.614806
v -0.554756 0.508906 2.417679
v -0.531859 0.666057 4.048643
v 0.684729 0.214819 2.705486
v 0.337845 0.547782 2.521812
v 0.493556 0.424994 3.919253
v 0.459308 -0.610720 2.713311
v 0.711879 -0.247325 2.681300
v 0.668776 -0.396365 3.701375
v -0.671186 -0.485272 3.785107
v -0.825869 0.389283 3.939059
v -0.003364 0.666940 4.000480
v 0.760216 0.019080 3.816491
v 0.290462 -0.694052 3.734991
v -0.515933 -0.211366 5.617426
v -0.179600 -0.537959 6.062177
v -0.118585 -0.203098 7.980787
v -0.326287 0.560454 5.609210
v -0.439645 0.218108 6.034042
v -0.031095 0.065306 7.972840
v 0.498826 0.505567 5.594145
v 0.169249 0.626313 5.928625
v 0.245053 0.053921 7.976191
v 0.847446 -0.279272 5.594457
v 0.807383 0.124681 6.028436
v 0.328941 -0.220460 7.986097
v 0.188680 -0.725131 5.597421
v 0.603173 -0.592963 6.062227
v 0.103776 -0.380130 7.988476
v 0.065792 -0.209877 8.442891
vt 0.000000 0.000000
vt 0.000000 0.000000
vt 0.000000 0.000000
vt 0.000000 0.000000
vt 0.000000 0.000000
vt 0.000000 0.000000
vt 0.000000 0.000000
vt 0.000000 0.000000
vt 0.000000 0.000000
vt 0.000000 0.000000
vt 0.000000 0.000000
vt 0.000000 0.000000
vt 0.000000 0.000000
vt 0.000000 0.000000
vt 0.000000 0.000000
vt 0.000000 0.000000
vt 0.817871 0.000000
vt 0.772461 0.079102
vt 0.863281 0.079102
vt 0.727051 0.157715
vt 0.681641 0.079102
vt 0.636230 0.157715
vt 0.090881 0.000000
vt 0.045441 0.079102
vt 0.136353 0.079102
vt 0.272705 0.000000
vt 0.227173 0.079102
vt 0.318115 0.079102
vt 0.454346 0.000000
vt 0.408936 0.079102
vt 0.499756 0.079102
vt 0.681641 0.236328
vt 0.908691 0.157715
vt 0.817871 0.157715
vt 0.863281 0.236328
vt 0.181763 0.157715
vt 0.090881 0.157715
vt 0.136353 0.236328
vt 0.363525 0.157715
vt 0.272705 0.157715
vt 0.318115 0.236328
vt 0.545410 0.157715
vt 0.454346 0.157715
vt 0.499756 0.236328
vt 0.772461 0.236328
vt 0.954102 0.236328
vt 0.227173 0.236328
vt 0.408936 0.236328
vt 0.590820 0.236328
vt 0.817871 0.314941
vt 0.727051 0.314941
vt 0.772461 0.394043
vt 1.000000 0.314941
vt 0.908691 0.314941
vt 0.954102 0.394043
vt 0.272705 0.314941
vt 0.181763 0.314941
vt 0.227173 0.394043
vt 0.454346 0.314941
vt 0.363525 0.314941
vt 0.408936 0.394043
vt 0.636230 0.314941
vt 0.545410 0.314941
vt 0.590820 0.394043
vt 0.499756 0.394043
vt 0.545410 0.472656
vt 0.318115 0.394043
vt 0.363525 0.472656
vt 0.136353 0.394043
vt 0.181763 0.472656
vt 0.090881 0.314941
vt 0.863281 0.394043
vt 0.908691 0.472656
vt 0.681641 0.394043
vt 0.727051 0.472656
vt 0.045441 0.236328
vt 0.000000 0.157715
vt 0.590820 0.079102
vt 0.636230 0.000000
vn 0.4025 0.9154 0.0079
vn 0.3537 -0.9352 -0.0157
vn -0.9153 -0.4024 0.0158
vn -0.3537 0.9352 0.0157
vn 0.9125 0.4090 -0.0080
vn 0.9125 0.4091 -0.0081
vn 0.9125 0.4090 -0.0079
vn 0.9316 -0.3631 -0.0158
vn 0.9316 -0.3632 -0.0158
vn -0.4025 -0.9154 -0.0000
vn -0.9314 0.3631 0.0241
vn -0.9315 0.3631 0.0234
vn -0.9315 0.3631 0.0237
vn -0.9314 0.3631 0.0237
vn -0.5511 -0.3700 -0.7479
vn -0.1177 -0.9339 -0.3375
vn -0.3378 0.5735 -0.7463
vn 0.5036 0.5744 -0.6453
vn 0.7590 -0.2689 -0.5930
vn -0.1414 -0.9899 -0.0078
vn -0.9901 -0.1257 -0.0628
vn -0.3781 0.9217 -0.0866
vn 0.6951 0.7188 -0.0158
vn 0.8176 -0.5739 -0.0472
vn -0.4175 -0.9059 0.0709
vn -0.9887 0.1491 -0.0157
vn 0.0000 0.9997 0.0236
vn 0.8398 0.5415 0.0393
vn 0.6194 -0.7841 0.0393
vn -0.7753 -0.6171 0.1345
vn -0.8179 0.5348 0.2123
vn 0.5200 0.8273 0.2127
vn 0.9680 -0.1339 0.2124
vn 0.1498 -0.9773 0.1498
vn 0.5521 -0.7651 0.3313
vn 0.5642 -0.7914 0.2351
vn 0.8964 -0.3932 0.2044
vn 0.8364 0.2762 0.4734
vn 0.9156 0.2921 0.2763
vn 0.6294 0.7474 0.2124
vn 0.0314 0.8639 0.5027
vn 0.0394 0.9625 0.2682
vn -0.2748 0.9342 0.2277
vn -0.8851 0.3003 0.3556
vn -0.9263 0.3062 0.2198
vn -0.9861 0.0159 0.1657
vn -0.6128 -0.7543 0.2357
vn -0.6198 -0.7689 0.1569
vn -0.3231 -0.9379 0.1261
vn 0.2997 -0.9540 0.0000
vn 0.6143 -0.7876 -0.0473
vn 0.7633 -0.6453 -0.0315
vn 0.9918 0.1259 -0.0236
vn 0.8275 0.5595 -0.0473
vn 0.7949 0.6060 -0.0315
vn 0.3373 0.9414 -0.0079
vn 0.0000 0.9997 0.0235
vn -0.1892 0.9774 0.0946
vn -0.8324 0.5183 0.1963
vn -0.9758 0.1102 0.1889
vn -0.9784 -0.0237 0.2052
vn -0.7863 -0.5976 0.1572
vn -0.3788 -0.9228 0.0710
vn 0.9772 -0.1970 -0.0788
vn 0.9754 -0.2202 0.0079
vn 0.9965 0.0628 -0.0549
vn 0.4340 0.8997 -0.0473
vn 0.4407 0.8971 0.0315
vn 0.2902 0.9569 -0.0078
vn -0.7078 0.6921 0.1416
vn -0.6693 0.7403 -0.0630
vn -0.8020 0.5898 -0.0944
vn -0.8690 -0.4740 0.1422
vn -0.8864 -0.4628 0.0078
vn -0.7814 -0.6236 -0.0236
vn 0.0315 -0.9994 -0.0158
vn 0.0315 -0.9992 0.0236
vn 0.2442 -0.9689 -0.0394
vn 0.7556 -0.5510 -0.3542
vn 0.8346 -0.2834 -0.4724
vn 0.9406 0.0711 -0.3320
vn 0.7375 0.5805 -0.3452
vn 0.5437 0.6934 -0.4728
vn 0.2197 0.9182 -0.3296
vn -0.2283 0.8973 -0.3778
vn -0.4569 0.6854 -0.5669
vn -0.7634 0.4722 -0.4407
vn 0.2914 -0.8976 -0.3307
vn 0.1185 -0.9004 -0.4186
vn 0.1500 -0.7736 -0.6157
vn -0.8975 -0.0079 -0.4409
vn -0.7066 -0.3925 -0.5888
vn -0.5986 -0.6931 -0.4017
vn -0.5986 -0.6931 -0.4016
usemtl PoplarTrunc.003
s 1
f 1/1/1 2/2/1 3/3/1
f 2/2/1 1/1/1 4/4/1
f 5/5/2 6/6/2 7/7/2
f 6/6/2 5/5/2 8/8/2
f 9/9/3 10/10/3 11/11/3
f 10/10/3 9/9/3 12/12/3
f 4/4/4 13/13/4 2/2/4
f 13/13/4 4/4/4 14/14/4
f 15/15/5 3/3/6 16/16/7
f 3/3/6 15/15/5 1/1/7
f 15/15/8 7/7/8 6/6/8
f 7/7/9 15/15/9 16/16/9
f 9/9/10 8/8/10 5/5/10
f 8/8/10 9/9/10 11/11/10
f 12/12/11 14/14/12 10/10/13
f 14/14/12 12/12/11 13/13/14
usemtl PoplarLeaves.003
f 17/17/15 18/18/15 19/19/15
f 20/20/16 18/21/16 21/22/16
f 17/23/17 19/24/17 22/25/17
f 17/26/18 22/27/18 23/28/18
f 17/29/19 23/30/19 24/31/19
f 20/20/20 21/22/20 25/32/20
f 26/33/21 27/34/21 28/35/21
f 29/36/22 30/37/22 31/38/22
f 32/39/23 33/40/23 34/41/23
f 35/42/24 36/43/24 37/44/24
f 20/20/25 25/32/25 38/45/25
f 26/33/26 28/35/26 39/46/26
f 29/36/27 31/38/27 40/47/27
f 32/39/28 34/41/28 41/48/28
f 35/42/29 37/44/29 42/49/29
f 43/50/30 44/51/30 45/52/30
f 46/53/31 47/54/31 48/55/31
f 49/56/32 50/57/32 51/58/32
f 52/59/33 53/60/33 54/61/33
f 55/62/34 56/63/34 57/64/34
f 57/64/35 54/65/35 58/66/35
f 57/64/36 56/63/36 54/65/36
f 56/63/37 52/59/37 54/65/37
f 54/61/38 51/67/38 58/68/38
f 54/61/39 53/60/39 51/67/39
f 53/60/40 49/56/40 51/67/40
f 51/58/41 48/69/41 58/70/41
f 51/58/42 50/57/42 48/69/42
f 50/57/43 46/71/43 48/69/43
f 48/55/44 45/72/44 58/73/44
f 48/55/45 47/54/45 45/72/45
f 47/54/46 43/50/46 45/72/46
f 45/52/47 57/74/47 58/75/47
f 45/52/48 44/51/48 57/74/48
f 44/51/49 55/62/49 57/74/49
f 42/49/50 56/63/50 55/62/50
f 42/49/51 37/44/51 56/63/51
f 37/44/52 52/59/52 56/63/52
f 41/48/53 53/60/53 52/59/53
f 41/48/54 34/41/54 53/60/54
f 34/41/55 49/56/55 53/60/55
f 40/47/56 50/57/56 49/56/56
f 40/47/27 31/38/27 50/57/57
f 31/38/58 46/71/58 50/57/58
f 39/46/59 47/54/59 46/53/59
f 39/46/60 28/35/60 47/54/60
f 28/35/61 43/50/61 47/54/61
f 38/45/62 44/51/62 43/50/62
f 38/45/25 25/32/25 44/51/25
f 25/32/63 55/62/63 44/51/63
f 37/44/64 41/48/64 52/59/64
f 37/44/65 36/43/65 41/48/65
f 36/43/66 32/39/66 41/48/66
f 34/41/67 40/47/67 49/56/67
f 34/41/68 33/40/68 40/47/68
f 33/40/69 29/36/69 40/47/69
f 31/38/70 39/76/70 46/71/70
f 31/38/71 30/37/71 39/76/71
f 30/37/72 26/77/72 39/76/72
f 28/35/73 38/45/73 43/50/73
f 28/35/74 27/34/74 38/45/74
f 27/34/75 20/20/75 38/45/75
f 25/32/76 42/49/76 55/62/76
f 25/32/77 21/22/77 42/49/77
f 21/22/78 35/42/78 42/49/78
f 24/31/79 36/43/79 35/42/79
f 24/31/80 23/30/80 36/43/80
f 23/30/81 32/39/81 36/43/81
f 23/28/82 33/40/82 32/39/82
f 23/28/83 22/27/83 33/40/83
f 22/27/84 29/36/84 33/40/84
f 22/25/85 30/37/85 29/36/85
f 22/25/86 19/24/86 30/37/86
f 19/24/87 26/77/87 30/37/87
f 21/22/88 24/78/88 35/42/88
f 21/22/89 18/21/89 24/78/89
f 18/21/90 17/79/90 24/78/90
f 19/19/91 27/34/91 26/33/91
f 19/19/92 18/18/92 27/34/92
f 18/18/93 20/20/94 27/34/94
