# Blender v2.90.1 OBJ File: ''
# www.blender.org
mtllib poplar1.mtl
o Poplar1
v 0.006103 -0.047250 6.111232
v 0.000000 0.087539 -0.000000
v -0.044227 -0.026251 6.111204
v 0.061900 0.061900 -0.000000
v 0.000000 -0.087539 -0.000000
v 0.006086 -0.148064 6.111241
v -0.044252 -0.168824 6.111216
v 0.061900 -0.061900 -0.000000
v -0.115422 -0.097369 6.111173
v -0.061900 -0.061900 0.000000
v -0.094582 -0.147826 6.111188
v -0.087539 -0.000000 0.000000
v -0.061900 0.061900 0.000000
v -0.094564 -0.047011 6.111180
v 0.087539 -0.000000 -0.000000
v 0.026943 -0.097706 6.111248
v 0.021661 -0.060867 1.501105
v -0.269220 -0.463590 1.911971
v -0.468317 0.072322 1.798841
v -0.451159 -0.715509 2.575750
v 0.067807 -0.819132 2.590003
v 0.019735 0.453700 1.850654
v 0.531582 0.108667 1.958411
v 0.352679 -0.455333 2.008530
v -0.144856 -0.871314 3.727536
v -0.807262 0.215810 2.473692
v -0.750926 -0.299417 2.373748
v -0.930548 -0.022479 3.788575
v 0.003191 0.832475 2.509121
v -0.479129 0.616108 2.349566
v -0.405750 0.895251 3.905273
v 0.880832 0.239937 2.618305
v 0.511870 0.636544 2.424595
v 0.789844 0.582770 3.765720
v 0.594106 -0.712866 2.684888
v 0.876993 -0.299892 2.629198
v 0.856701 -0.504885 3.642110
v -0.693007 -0.564552 3.755843
v -0.806270 0.537852 3.838698
v 0.257065 0.916884 3.824961
v 1.012378 0.032287 3.712678
v 0.406877 -0.871787 3.707129
v -0.735375 -0.303143 5.669014
v -0.397447 -0.669091 6.131339
v -0.212222 -0.280388 8.004410
v -0.419234 0.622926 5.613700
v -0.640494 0.159758 6.091298
v -0.118782 -0.004754 7.995569
v 0.541869 0.635928 5.578317
v 0.115370 0.697212 5.947857
v 0.168657 -0.005299 7.996469
v 0.821087 -0.288557 5.617751
v 0.757618 0.168897 6.061037
v 0.252828 -0.281500 8.005766
v 0.039601 -0.863220 5.652228
v 0.468606 -0.666101 6.116550
v 0.017725 -0.451330 8.010140
v 0.021086 -0.247504 8.453979
vt 0.000000 0.000000
vt 0.000000 0.000000
vt 0.000000 0.000000
vt 0.000000 0.000000
vt 0.000000 0.000000
vt 0.000000 0.000000
vt 0.000000 0.000000
vt 0.000000 0.000000
vt 0.000000 0.000000
vt 0.000000 0.000000
vt 0.000000 0.000000
vt 0.000000 0.000000
vt 0.000000 0.000000
vt 0.000000 0.000000
vt 0.000000 0.000000
vt 0.000000 0.000000
vt 0.817871 0.000000
vt 0.772461 0.079102
vt 0.863281 0.079102
vt 0.727051 0.157715
vt 0.681641 0.079102
vt 0.636230 0.157715
vt 0.090881 0.000000
vt 0.045441 0.079102
vt 0.136353 0.079102
vt 0.272705 0.000000
vt 0.227173 0.079102
vt 0.318115 0.079102
vt 0.454346 0.000000
vt 0.408936 0.079102
vt 0.499756 0.079102
vt 0.681641 0.236328
vt 0.908691 0.157715
vt 0.817871 0.157715
vt 0.863281 0.236328
vt 0.181763 0.157715
vt 0.090881 0.157715
vt 0.136353 0.236328
vt 0.363525 0.157715
vt 0.272705 0.157715
vt 0.318115 0.236328
vt 0.545410 0.157715
vt 0.454346 0.157715
vt 0.499756 0.236328
vt 0.772461 0.236328
vt 0.954102 0.236328
vt 0.227173 0.236328
vt 0.408936 0.236328
vt 0.590820 0.236328
vt 0.817871 0.314941
vt 0.727051 0.314941
vt 0.772461 0.394043
vt 1.000000 0.314941
vt 0.908691 0.314941
vt 0.954102 0.394043
vt 0.272705 0.314941
vt 0.181763 0.314941
vt 0.227173 0.394043
vt 0.454346 0.314941
vt 0.363525 0.314941
vt 0.408936 0.394043
vt 0.636230 0.314941
vt 0.545410 0.314941
vt 0.590820 0.394043
vt 0.499756 0.394043
vt 0.545410 0.472656
vt 0.318115 0.394043
vt 0.363525 0.472656
vt 0.136353 0.394043
vt 0.181763 0.472656
vt 0.090881 0.314941
vt 0.863281 0.394043
vt 0.908691 0.472656
vt 0.681641 0.394043
vt 0.727051 0.472656
vt 0.045441 0.236328
vt 0.000000 0.157715
vt 0.590820 0.079102
vt 0.636230 0.000000
vn 0.3862 0.9221 0.0237
vn 0.3863 -0.9224 -0.0079
vn 0.3863 -0.9223 -0.0079
vn -0.9224 -0.3863 -0.0079
vn -0.9223 -0.3863 -0.0079
vn -0.3863 0.9223 0.0158
vn -0.3862 0.9223 0.0158
vn 0.9223 0.3862 0.0158
vn 0.9224 -0.3863 0.0000
vn -0.3862 -0.9223 -0.0158
vn -0.3862 -0.9223 -0.0157
vn -0.3863 -0.9223 -0.0158
vn -0.9224 0.3863 -0.0000
vn -0.5526 -0.3632 -0.7501
vn -0.1728 -0.9033 -0.3927
vn -0.3314 0.5288 -0.7813
vn 0.4859 0.4938 -0.7211
vn 0.6915 -0.2750 -0.6679
vn -0.1970 -0.9772 -0.0788
vn -0.9902 -0.0865 -0.1099
vn -0.3618 0.9202 -0.1494
vn 0.7574 0.6390 -0.1341
vn 0.8116 -0.5752 -0.1024
vn -0.4876 -0.8730 0.0078
vn -0.9740 0.2199 -0.0550
vn -0.0393 0.9977 -0.0550
vn 0.9245 0.3791 -0.0395
vn 0.6324 -0.7746 -0.0079
vn -0.8278 -0.5282 0.1892
vn -0.7393 0.6213 0.2596
vn 0.3769 0.8795 0.2906
vn 0.9696 -0.0867 0.2286
vn 0.2521 -0.9534 0.1655
vn 0.5525 -0.7577 0.3473
vn 0.5741 -0.7864 0.2281
vn 0.8357 -0.5125 0.1971
vn 0.8611 0.2765 0.4266
vn 0.9101 0.2849 0.3007
vn 0.7326 0.6223 0.2757
vn 0.0000 0.8847 0.4661
vn -0.0000 0.9463 0.3233
vn -0.2993 0.9135 0.2756
vn -0.8533 0.3053 0.4227
vn -0.9078 0.3156 0.2763
vn -0.9754 -0.0000 0.2203
vn -0.5666 -0.7477 0.3463
vn -0.5839 -0.7812 0.2210
vn -0.2448 -0.9553 0.1658
vn 0.3528 -0.9330 0.0706
vn 0.6364 -0.7699 0.0471
vn 0.7792 -0.6218 0.0787
vn 0.9942 0.0316 0.1026
vn 0.9262 0.3689 0.0785
vn 0.8579 0.5036 0.1023
vn 0.2371 0.9642 0.1186
vn 0.2371 0.9642 0.1185
vn -0.0236 0.9944 0.1026
vn -0.2286 0.9619 0.1499
vn -0.8202 0.5521 0.1498
vn -0.9736 0.2042 0.1021
vn -0.9886 0.0941 0.1177
vn -0.7727 -0.6308 0.0710
vn -0.4875 -0.8728 0.0236
vn -0.3698 -0.9283 0.0393
vn 0.9580 -0.2827 0.0471
vn 0.9605 -0.2755 -0.0393
vn 0.9930 -0.0079 -0.1182
vn 0.5357 0.8431 0.0473
vn 0.5259 0.8476 -0.0706
vn 0.3396 0.9320 -0.1264
vn -0.6705 0.7337 0.1104
vn -0.6545 0.7491 -0.1025
vn -0.7881 0.5990 -0.1418
vn -0.9150 -0.4023 0.0316
vn -0.9147 -0.4022 -0.0394
vn -0.7893 -0.6078 -0.0868
vn -0.0000 -1.0000 0.0078
vn 0.0000 -0.9989 -0.0472
vn 0.2131 -0.9708 -0.1105
vn 0.7026 -0.5447 -0.4579
vn 0.7643 -0.2916 -0.5752
vn 0.8846 -0.0158 -0.4660
vn 0.7456 0.4552 -0.4866
vn 0.5204 0.5756 -0.6308
vn 0.2441 0.8425 -0.4802
vn -0.2133 0.8453 -0.4898
vn -0.4328 0.6374 -0.6375
vn -0.7486 0.4649 -0.4728
vn 0.2509 -0.8705 -0.4235
vn 0.0865 -0.8645 -0.4952
vn 0.1103 -0.7485 -0.6539
vn -0.8944 -0.0078 -0.4472
vn -0.7015 -0.3862 -0.5990
vn -0.6305 -0.6542 -0.4177
usemtl PoplarTrunc
s 1
f 1/1/1 2/2/1 3/3/1
f 2/2/1 1/1/1 4/4/1
f 5/5/2 6/6/3 7/7/3
f 6/6/3 5/5/2 8/8/3
f 9/9/4 10/10/4 11/11/4
f 10/10/5 9/9/5 12/12/5
f 3/3/6 13/13/6 14/14/6
f 13/13/7 3/3/7 2/2/7
f 15/15/8 1/1/8 16/16/8
f 1/1/8 15/15/8 4/4/8
f 8/8/9 16/16/9 6/6/9
f 16/16/9 8/8/9 15/15/9
f 10/10/10 7/7/11 11/11/10
f 7/7/11 10/10/10 5/5/12
f 14/14/13 12/12/13 9/9/13
f 12/12/13 14/14/13 13/13/13
usemtl PoplarLeaves
f 17/17/14 18/18/14 19/19/14
f 20/20/15 18/21/15 21/22/15
f 17/23/16 19/24/16 22/25/16
f 17/26/17 22/27/17 23/28/17
f 17/29/18 23/30/18 24/31/18
f 20/20/19 21/22/19 25/32/19
f 26/33/20 27/34/20 28/35/20
f 29/36/21 30/37/21 31/38/21
f 32/39/22 33/40/22 34/41/22
f 35/42/23 36/43/23 37/44/23
f 20/20/24 25/32/24 38/45/24
f 26/33/25 28/35/25 39/46/25
f 29/36/26 31/38/26 40/47/26
f 32/39/27 34/41/27 41/48/27
f 35/42/28 37/44/28 42/49/28
f 43/50/29 44/51/29 45/52/29
f 46/53/30 47/54/30 48/55/30
f 49/56/31 50/57/31 51/58/31
f 52/59/32 53/60/32 54/61/32
f 55/62/33 56/63/33 57/64/33
f 57/64/34 54/65/34 58/66/34
f 57/64/35 56/63/35 54/65/35
f 56/63/36 52/59/36 54/65/36
f 54/61/37 51/67/37 58/68/37
f 54/61/38 53/60/38 51/67/38
f 53/60/39 49/56/39 51/67/39
f 51/58/40 48/69/40 58/70/40
f 51/58/41 50/57/41 48/69/41
f 50/57/42 46/71/42 48/69/42
f 48/55/43 45/72/43 58/73/43
f 48/55/44 47/54/44 45/72/44
f 47/54/45 43/50/45 45/72/45
f 45/52/46 57/74/46 58/75/46
f 45/52/47 44/51/47 57/74/47
f 44/51/48 55/62/48 57/74/48
f 42/49/49 56/63/49 55/62/49
f 42/49/50 37/44/50 56/63/50
f 37/44/51 52/59/51 56/63/51
f 41/48/52 53/60/52 52/59/52
f 41/48/53 34/41/53 53/60/53
f 34/41/54 49/56/54 53/60/54
f 40/47/55 50/57/56 49/56/56
f 40/47/57 31/38/57 50/57/57
f 31/38/58 46/71/58 50/57/58
f 39/46/59 47/54/59 46/53/59
f 39/46/60 28/35/60 47/54/60
f 28/35/61 43/50/61 47/54/61
f 38/45/62 44/51/62 43/50/62
f 38/45/63 25/32/63 44/51/63
f 25/32/64 55/62/64 44/51/64
f 37/44/65 41/48/65 52/59/65
f 37/44/66 36/43/66 41/48/66
f 36/43/67 32/39/67 41/48/67
f 34/41/68 40/47/68 49/56/68
f 34/41/69 33/40/69 40/47/69
f 33/40/70 29/36/70 40/47/70
f 31/38/71 39/76/71 46/71/71
f 31/38/72 30/37/72 39/76/72
f 30/37/73 26/77/73 39/76/73
f 28/35/74 38/45/74 43/50/74
f 28/35/75 27/34/75 38/45/75
f 27/34/76 20/20/76 38/45/76
f 25/32/77 42/49/77 55/62/77
f 25/32/78 21/22/78 42/49/78
f 21/22/79 35/42/79 42/49/79
f 24/31/80 36/43/80 35/42/80
f 24/31/81 23/30/81 36/43/81
f 23/30/82 32/39/82 36/43/82
f 23/28/83 33/40/83 32/39/83
f 23/28/84 22/27/84 33/40/84
f 22/27/85 29/36/85 33/40/85
f 22/25/86 30/37/86 29/36/86
f 22/25/87 19/24/87 30/37/87
f 19/24/88 26/77/88 30/37/88
f 21/22/89 24/78/89 35/42/89
f 21/22/90 18/21/90 24/78/90
f 18/21/91 17/79/91 24/78/91
f 19/19/92 27/34/92 26/33/92
f 19/19/93 18/18/93 27/34/93
f 18/18/94 20/20/94 27/34/94
