# Blender v2.90.1 OBJ File: ''
# www.blender.org
mtllib rock2.mtl
o Rock2
v -0.391291 0.222622 0.300875
v -0.158183 0.218436 0.570546
v -0.186146 0.468201 0.300875
v 0.184944 0.222622 0.566173
v 0.390089 0.222622 0.300875
v 0.158469 0.472779 0.358584
v -0.186146 -0.221608 0.496219
v -0.391291 -0.221608 0.300875
v -0.186146 -0.467187 0.300875
v 0.184944 -0.221608 0.498531
v 0.184944 -0.467187 0.300875
v 0.390089 -0.221608 0.300875
v -0.497447 -0.221608 0.000000
v -0.454435 0.222622 0.000000
v 0.184944 -0.543699 -0.000000
v -0.186146 -0.547736 0.000000
v -0.186146 0.554859 0.000000
v 0.250663 0.566805 -0.000000
v 0.446392 0.222622 -0.000000
v 0.416553 -0.221608 -0.000000
vt 0.493652 0.934387
vt 0.625000 0.934387
vt 0.493652 1.000000
vt 0.809082 0.565674
vt 0.809082 0.500000
vt 0.875000 0.565674
vt 0.690430 0.684570
vt 0.690430 0.750000
vt 0.625000 0.684570
vt 0.690430 0.565674
vt 0.625000 0.565674
vt 0.690430 0.500000
vt 0.375000 0.815674
vt 0.493652 0.815674
vt 0.375000 0.934387
vt 0.493652 0.684570
vt 0.375000 0.565674
vt 0.493652 0.565674
vt 0.375000 0.684570
vt 0.809082 0.684570
vt 0.493652 0.184570
vt 0.375000 0.065918
vt 0.493652 0.065918
vt 0.375000 0.184570
vt 0.493652 0.434570
vt 0.375000 0.315918
vt 0.493652 0.315918
vt 0.375000 0.434570
vt 0.375000 1.000000
vt 0.875000 0.684570
vt 0.809082 0.750000
vn -0.6359 0.5338 0.5574
vn 0.6775 0.5121 0.5279
vn -0.5981 -0.4958 0.6296
vn 0.5987 -0.5042 0.6223
vn -0.9622 0.0473 0.2681
vn -0.9622 0.0473 0.2682
vn 0.0079 -0.9678 0.2518
vn -0.0000 -0.1580 0.9874
vn -0.0392 0.9651 0.2589
vn 0.9905 -0.0315 0.1336
vn 0.9905 -0.0314 0.1337
vn -0.7637 0.6220 0.1732
vn -0.0630 0.6858 0.7251
vn -0.0631 0.6857 0.7251
vn -0.0630 0.6857 0.7251
vn 0.7938 0.5501 0.2594
vn 0.7938 0.5501 0.2593
vn 0.7483 -0.0473 0.6617
vn 0.7875 -0.6064 0.1102
vn 0.0000 -0.6237 0.7816
vn -0.7255 -0.6545 0.2129
vn -0.7262 -0.0316 0.6867
usemtl Rock.002
s 1
f 1/1/1 2/2/1 3/3/1
f 4/4/2 5/5/2 6/6/2
f 7/7/3 8/8/3 9/9/3
f 10/10/4 11/11/4 12/12/4
f 1/1/5 13/13/5 8/14/5
f 13/13/6 1/1/6 14/15/6
f 9/16/7 15/17/7 11/18/7
f 15/17/7 9/16/7 16/19/7
f 4/4/8 2/20/8 10/10/8
f 10/10/8 2/20/8 7/7/8
f 6/21/9 17/22/9 3/23/9
f 17/22/9 6/21/9 18/24/9
f 12/25/10 19/26/10 5/27/10
f 19/26/11 12/25/11 20/28/11
f 3/3/12 14/15/12 1/1/12
f 14/15/12 3/3/12 17/29/12
f 6/6/13 2/20/14 4/4/15
f 2/20/14 6/6/13 3/30/14
f 19/26/16 6/21/17 5/27/16
f 6/21/17 19/26/16 18/24/16
f 10/10/18 5/5/18 4/4/18
f 5/5/18 10/10/18 12/12/18
f 12/25/19 11/18/19 20/28/19
f 11/18/19 15/17/19 20/28/19
f 11/18/20 10/10/20 9/16/20
f 10/10/20 7/7/20 9/16/20
f 13/13/21 9/16/21 8/14/21
f 9/16/21 13/13/21 16/19/21
f 7/7/22 2/20/22 1/31/22
f 7/7/22 1/31/22 8/8/22
