# Blender v2.90.1 OBJ File: ''
# www.blender.org
mtllib rock3.mtl
o Rock3_Rock3.001
v 0.546851 -0.970854 0.253974
v 0.711330 -0.837508 0.283711
v 0.618630 -0.537886 0.428542
v -0.726339 -0.490404 0.315130
v -0.496362 -0.780727 0.253974
v -0.536991 -0.537886 0.428542
v -0.190137 0.898934 0.538045
v 0.633720 0.000000 0.538045
v 0.346317 0.898934 0.538045
v -0.599722 0.000000 0.538045
v 0.546851 -0.970854 0.001306
v -0.496362 -0.780727 0.001306
v 0.444588 1.000000 0.436979
v -0.280102 1.000000 0.000000
v -0.280102 1.000000 0.436979
v 0.444588 1.000000 -0.000000
v 0.734826 0.000000 0.051456
v 0.734826 0.000000 0.436979
v 0.711330 -0.837508 0.009455
v -0.701473 0.000000 0.051456
v -0.726339 -0.490404 0.018065
v -0.701473 0.000000 0.436979
vt 0.577637 0.527832
vt 0.610840 0.506104
vt 0.682617 0.518555
vt 0.666504 0.750000
vt 0.645508 0.743408
vt 0.682617 0.731445
vt 0.862305 0.730957
vt 0.750000 0.517822
vt 0.862305 0.519287
vt 0.750000 0.732422
vt 0.577637 0.708252
vt 0.375000 0.527832
vt 0.375000 0.708252
vt 0.577637 0.250000
vt 0.375000 0.000000
vt 0.577637 0.000000
vt 0.375000 0.250000
vt 0.576660 0.479980
vt 0.375000 0.375000
vt 0.572754 0.375000
vt 0.375000 0.479980
vt 0.576172 0.791870
vt 0.375000 0.875000
vt 0.375000 0.791870
vt 0.572754 0.875000
vt 0.875000 0.750000
vt 0.875000 0.500000
vt 0.750000 0.500000
vt 0.645020 0.500000
vt 0.750000 0.750000
vt 0.577637 1.000000
vt 0.375000 1.000000
vn 0.1498 -0.3942 0.9067
vn -0.5278 -0.5515 0.6460
vn 0.0000 -0.0000 1.0000
vn -0.1809 -0.9835 0.0000
vn 0.0000 1.0000 0.0000
vn 0.9995 -0.0315 -0.0000
vn 0.9995 -0.0314 0.0000
vn 0.9612 0.2758 -0.0000
vn -0.9989 0.0472 -0.0000
vn -0.0000 -0.1977 0.9803
vn 0.0000 0.7071 0.7071
vn 0.6744 -0.1568 0.7215
vn -0.6223 0.2757 0.7326
vn 0.6445 0.1965 0.7389
vn 0.6446 0.1965 0.7389
vn -0.0393 -0.4563 0.8890
vn -0.9224 0.3863 -0.0000
vn 0.6285 -0.7778 -0.0000
vn 0.6286 -0.7778 0.0000
vn -0.6008 -0.1976 0.7746
vn -0.6007 -0.1976 0.7746
vn -0.7847 -0.6199 -0.0000
vn -0.7847 -0.6198 0.0000
usemtl Rock.003
s 1
f 1/1/1 2/2/1 3/3/1
f 4/4/2 5/5/2 6/6/2
f 7/7/3 8/8/3 9/9/3
f 10/10/3 8/8/3 7/7/3
f 5/11/4 11/12/4 1/1/4
f 11/12/4 5/11/4 12/13/4
f 13/14/5 14/15/5 15/16/5
f 14/15/5 13/14/5 16/17/5
f 2/18/6 17/19/6 18/20/6
f 17/19/7 2/18/7 19/21/7
f 13/14/8 17/19/8 16/17/8
f 17/19/8 13/14/8 18/20/8
f 4/22/9 20/23/9 21/24/9
f 20/23/9 4/22/9 22/25/9
f 8/8/10 6/6/10 3/3/10
f 6/6/10 8/8/10 10/10/10
f 9/9/11 15/26/11 7/7/11
f 15/26/11 9/9/11 13/27/11
f 3/3/12 18/28/12 8/8/12
f 2/29/12 18/28/12 3/3/12
f 22/30/13 7/7/13 15/26/13
f 7/7/13 22/30/13 10/10/13
f 18/28/14 13/27/14 9/9/15
f 18/28/14 9/9/15 8/8/15
f 5/11/16 1/1/16 3/3/16
f 3/3/16 6/6/16 5/11/16
f 15/31/17 20/23/17 22/25/17
f 20/23/17 15/31/17 14/32/17
f 1/1/18 19/21/18 2/18/18
f 19/21/19 1/1/19 11/12/19
f 10/10/20 4/4/21 6/6/21
f 4/4/21 10/10/20 22/30/21
f 5/11/22 21/24/22 12/13/23
f 21/24/22 5/11/22 4/22/22
