# Blender v2.90.1 OBJ File: ''
# www.blender.org
mtllib rock1.mtl
o Rock1
v 0.000000 -0.500000 0.000000
v 0.529341 -0.157658 0.350388
v 0.000000 -0.256522 0.415632
v 0.653801 -0.347601 -0.000000
v 0.000000 0.309583 0.421764
v -0.390481 0.281450 0.411021
v 0.000000 0.079653 0.443984
v -0.434382 0.109342 0.436716
v 0.509527 0.169028 0.401326
v 0.574985 0.065740 0.404103
v 0.487926 0.272712 0.330602
v 0.000000 0.500000 0.000000
v 0.000000 0.401664 0.345925
v 0.653801 0.347601 -0.000000
v -0.335406 -0.163670 0.415899
v -0.500000 -0.364031 0.000000
v 0.533786 -0.052800 0.407290
v 0.000000 -0.154790 0.466640
v -0.393422 0.379187 0.332617
v -0.500000 0.500000 0.000000
v -0.351383 -0.057964 0.461693
v 0.747754 0.000000 -0.000000
v -0.592145 0.067984 0.000000
vt 0.375000 0.625000
vt 0.629883 0.492188
vt 0.655273 0.625000
vt 0.375000 0.500000
vt 0.827148 0.625000
vt 0.811035 0.718994
vt 0.769531 0.625000
vt 0.744141 0.724854
vt 0.786133 0.519775
vt 0.746582 0.509521
vt 0.592773 0.278809
vt 0.375000 0.125000
vt 0.599121 0.129395
vt 0.375000 0.250000
vt 0.615723 0.735596
vt 0.375000 0.750000
vt 0.700684 0.498047
vt 0.710938 0.625000
vt 0.820312 0.528320
vt 0.845215 0.625000
vt 0.839355 0.716309
vt 0.845215 0.625488
vt 0.552246 0.026855
vt 0.375000 0.000000
vt 0.679199 0.730713
vt 0.375000 0.375000
vt 0.655273 0.387695
vt 0.645996 0.332031
vt 0.375000 0.875000
vt 0.637207 0.770142
vt 0.611816 0.848633
vt 0.585938 0.929321
vt 0.541016 0.969803
vt 0.375000 1.000000
vt 0.666016 0.451660
vn 0.2055 -0.8378 0.5058
vn -0.0236 0.1182 0.9927
vn 0.0710 0.0867 0.9937
vn 0.0710 0.0868 0.9937
vn 0.2357 0.9273 0.2908
vn -0.2274 -0.8391 0.4941
vn -0.2274 -0.8392 0.4941
vn 0.0868 0.0631 0.9942
vn 0.1888 0.5980 0.7789
vn 0.1888 0.5980 0.7790
vn 0.1887 0.5980 0.7790
vn -0.0631 0.6311 0.7731
vn -0.0314 0.9490 0.3137
vn -0.1258 -0.4247 0.8965
vn -0.1258 -0.4247 0.8966
vn 0.1895 -0.4579 0.8685
vn 0.1895 -0.4580 0.8685
vn 0.0000 0.1182 0.9930
vn 0.8508 0.3387 0.4018
vn 0.8508 0.3388 0.4018
vn -0.8762 -0.2526 0.4105
vn -0.9129 0.2282 0.3384
vn 0.8685 -0.2527 0.4264
usemtl Rock.001
s 1
f 1/1/1 2/2/1 3/3/1
f 2/2/1 1/1/1 4/4/1
f 5/5/2 6/6/2 7/7/2
f 7/7/2 6/6/2 8/8/2
f 9/9/3 7/7/3 10/10/4
f 7/7/3 9/9/3 5/5/3
f 11/11/5 12/12/5 13/13/5
f 12/12/5 11/11/5 14/14/5
f 15/15/6 1/1/6 3/3/6
f 1/1/7 15/15/7 16/16/7
f 10/10/8 7/7/8 17/17/8
f 17/17/8 7/7/8 18/18/8
f 11/19/9 5/5/10 9/9/10
f 5/5/10 11/19/9 13/20/11
f 19/21/12 5/5/12 13/22/12
f 5/5/12 19/21/12 6/6/12
f 12/12/13 19/23/13 13/13/13
f 19/23/13 12/12/13 20/24/13
f 15/15/14 3/3/15 18/18/15
f 18/18/15 21/25/15 15/15/14
f 2/2/16 18/18/17 3/3/17
f 18/18/17 2/2/16 17/17/16
f 7/7/18 21/25/18 18/18/18
f 21/25/18 7/7/18 8/8/18
f 11/11/19 22/26/19 14/14/20
f 22/26/19 11/11/19 10/27/19
f 10/27/19 11/11/19 9/28/20
f 23/29/21 21/30/21 8/31/21
f 21/30/21 23/29/21 15/15/21
f 15/15/21 23/29/21 16/16/21
f 6/32/22 23/29/22 8/31/22
f 23/29/22 6/32/22 19/33/22
f 23/29/22 19/33/22 20/34/22
f 17/35/23 22/26/23 10/27/23
f 2/2/23 22/26/23 17/35/23
f 22/26/23 2/2/23 4/4/23
