# Blender v2.90.1 OBJ File: ''
# www.blender.org
mtllib saplin2.mtl
o Saplin2
v 0.014340 -0.014340 1.590217
v 0.080000 0.000000 -0.000000
v 0.020280 0.000000 1.590217
v 0.056569 -0.056569 -0.000000
v -0.000000 -0.080000 0.000000
v 0.000000 -0.020280 1.590217
v -0.014340 -0.014340 1.590217
v -0.056569 -0.056569 0.000000
v -0.080000 0.000000 0.000000
v -0.020279 0.000000 1.590217
v -0.014340 0.014340 1.590217
v -0.056569 0.056569 0.000000
v 0.000000 0.080000 0.000000
v 0.000000 0.020280 1.590217
v 0.014340 0.014340 1.590217
v 0.056569 0.056569 -0.000000
v 0.018508 0.046404 1.775625
v 0.246239 0.605756 0.968799
v -0.188479 0.550459 1.083506
v 0.590060 -0.206349 0.946326
v 0.559798 0.258697 1.022698
v -0.192003 -0.549973 0.960444
v 0.220572 -0.481176 1.060209
v -0.600408 0.297310 0.957309
v -0.591523 -0.197810 0.930180
v -0.018811 -0.021901 1.454730
v 0.056573 -0.731247 0.363177
v 0.459933 -0.416680 0.514502
v -0.736336 -0.077863 0.369098
v -0.447508 -0.527338 0.445289
v -0.136755 0.736277 0.344630
v -0.506050 0.397252 0.487985
v 0.812665 0.067478 0.301290
v 0.460852 0.550713 0.339981
vt 0.875000 1.000000
vt 1.000000 0.500000
vt 1.000000 1.000000
vt 0.875000 0.500000
vt 0.750000 0.500000
vt 0.750000 1.000000
vt 0.625000 1.000000
vt 0.625000 0.500000
vt 0.500000 0.500000
vt 0.500000 1.000000
vt 0.375000 1.000000
vt 0.375000 0.500000
vt 0.250000 0.500000
vt 0.250000 1.000000
vt 0.125000 1.000000
vt 0.125000 0.500000
vt 0.000000 0.500000
vt 0.000000 1.000000
vt 0.000000 0.000000
vt 0.000000 0.000000
vt 0.000000 0.000000
vt 0.000000 0.000000
vt 0.000000 0.000000
vt 0.000000 0.000000
vt 0.000000 0.000000
vt 0.000000 0.000000
vt 0.000000 0.000000
vt 0.000000 0.000000
vt 0.000000 0.000000
vt 0.000000 0.000000
vt 0.000000 0.000000
vt 0.000000 0.000000
vt 0.000000 0.000000
vt 0.000000 0.000000
vt 0.000000 0.000000
vt 0.000000 0.000000
vn 0.9219 -0.3861 0.0315
vn 0.3861 -0.9219 0.0315
vn -0.3861 -0.9219 0.0315
vn -0.9219 -0.3861 0.0315
vn -0.9219 0.3861 0.0315
vn -0.3861 0.9219 0.0315
vn 0.3861 0.9219 0.0315
vn 0.9219 0.3861 0.0315
vn 0.0475 0.8149 0.5776
vn 0.8179 -0.0393 0.5741
vn -0.0079 -0.8056 0.5923
vn -0.8047 -0.0473 0.5917
vn 0.5587 0.5981 0.5745
vn 0.5903 -0.5588 0.5824
vn -0.5668 -0.5904 0.5747
vn -0.5453 0.5927 0.5927
vn 0.3944 -0.7572 0.5206
vn -0.7572 -0.3944 0.5206
vn -0.7573 -0.3944 0.5206
vn -0.4485 0.7159 0.5351
vn 0.7001 0.4641 0.5427
vn -0.2441 -0.8188 0.5196
vn -0.8129 0.2605 0.5209
vn 0.2520 0.8112 0.5277
vn 0.7781 -0.3301 0.5344
usemtl SaplinTrunc.001
s 1
f 1/1/1 2/2/1 3/3/1
f 2/2/1 1/1/1 4/4/1
f 5/5/2 1/1/2 6/6/2
f 1/1/2 5/5/2 4/4/2
f 7/7/3 5/5/3 6/6/3
f 5/5/3 7/7/3 8/8/3
f 9/9/4 7/7/4 10/10/4
f 7/7/4 9/9/4 8/8/4
f 11/11/5 9/9/5 10/10/5
f 9/9/5 11/11/5 12/12/5
f 13/13/6 11/11/6 14/14/6
f 11/11/6 13/13/6 12/12/6
f 15/15/7 13/13/7 14/14/7
f 13/13/7 15/15/7 16/16/7
f 2/17/8 15/15/8 3/18/8
f 15/15/8 2/17/8 16/16/8
usemtl SaplinLeave.001
f 17/19/9 18/20/9 19/21/9
f 17/19/10 20/22/10 21/23/10
f 17/19/11 22/24/11 23/25/11
f 17/19/12 24/26/12 25/27/12
f 17/19/13 21/23/13 18/20/13
f 17/19/14 23/25/14 20/22/14
f 17/19/15 25/27/15 22/24/15
f 17/19/16 19/21/16 24/26/16
f 26/28/17 27/29/17 28/30/17
f 26/28/18 29/31/19 30/32/19
f 26/28/20 31/33/20 32/34/20
f 26/28/21 33/35/21 34/36/21
f 26/28/22 30/32/22 27/29/22
f 26/28/23 32/34/23 29/31/23
f 26/28/24 34/36/24 31/33/24
f 26/28/25 28/30/25 33/35/25
