# Blender v2.90.1 OBJ File: ''
# www.blender.org
mtllib saplin1.mtl
o Saplin1
v 0.035850 -0.035850 3.975543
v 0.200000 0.000000 -0.000000
v 0.050700 0.000000 3.975543
v 0.141421 -0.141421 -0.000000
v -0.000000 -0.200000 0.000000
v 0.000001 -0.050699 3.975543
v -0.035849 -0.035850 3.975543
v -0.141421 -0.141421 0.000000
v -0.200000 0.000000 0.000000
v -0.050698 0.000000 3.975543
v -0.035849 0.035850 3.975543
v -0.141421 0.141421 0.000000
v 0.000000 0.200000 0.000000
v 0.000001 0.050699 3.975543
v 0.035850 0.035850 3.975543
v 0.141421 0.141421 -0.000000
v 0.000001 0.000000 4.551792
v 0.548330 -0.525492 3.537167
v 0.605579 0.007362 3.782543
v -0.582369 -0.572598 3.468018
v -0.002410 -0.646224 3.714958
v -0.716886 0.624738 3.326125
v -0.627868 0.007362 3.756649
v 0.670808 0.702053 3.361996
v -0.002410 0.730322 3.612129
v 0.038790 0.013036 4.329203
v 1.110967 0.076805 2.692085
v 0.612921 0.649578 3.039611
v 0.070585 -1.142446 2.594149
v 0.705741 -0.611273 2.943890
v -1.302059 -0.128616 2.393185
v -0.575351 -0.630964 3.002938
v -0.045455 1.386546 2.443990
v -0.723364 0.714857 2.798254
v -0.086863 0.042373 4.023357
v -1.488002 -0.566635 1.685566
v -0.544580 -1.085790 2.178603
v -0.698896 1.565952 1.546624
v -1.284924 0.547901 2.042804
v 1.624977 0.887237 1.261515
v 0.411492 1.200758 2.126575
v 0.692669 -1.745181 1.333592
v 1.266900 -0.519091 1.836188
v -0.040634 0.093215 3.301835
v -1.600963 0.767609 0.758573
v -1.402373 -0.420792 1.144421
v 0.694591 1.720024 0.655707
v -0.593190 1.557079 0.982623
v 1.674630 -0.536196 0.674952
v 1.360231 0.621991 1.082432
v -0.732316 -1.503567 0.924263
v 0.570572 -1.526029 0.736452
vt 0.875000 1.000000
vt 1.000000 0.500000
vt 1.000000 1.000000
vt 0.875000 0.500000
vt 0.750000 0.500000
vt 0.750000 1.000000
vt 0.625000 1.000000
vt 0.625000 0.500000
vt 0.500000 0.500000
vt 0.500000 1.000000
vt 0.375000 1.000000
vt 0.375000 0.500000
vt 0.250000 0.500000
vt 0.250000 1.000000
vt 0.125000 1.000000
vt 0.125000 0.500000
vt 0.000000 0.500000
vt 0.000000 1.000000
vt 0.000000 0.000000
vt 0.000000 0.000000
vt 0.000000 0.000000
vt 0.000000 0.000000
vt 0.000000 0.000000
vt 0.000000 0.000000
vt 0.000000 0.000000
vt 0.000000 0.000000
vt 0.000000 0.000000
vt 0.000000 0.000000
vt 0.000000 0.000000
vt 0.000000 0.000000
vt 0.000000 0.000000
vt 0.000000 0.000000
vt 0.000000 0.000000
vt 0.000000 0.000000
vt 0.000000 0.000000
vt 0.000000 0.000000
vt 0.000000 0.000000
vt 0.000000 0.000000
vt 0.000000 0.000000
vt 0.000000 0.000000
vt 0.000000 0.000000
vt 0.000000 0.000000
vt 0.000000 0.000000
vt 0.000000 0.000000
vt 0.000000 0.000000
vt 0.000000 0.000000
vt 0.000000 0.000000
vt 0.000000 0.000000
vt 0.000000 0.000000
vt 0.000000 0.000000
vt 0.000000 0.000000
vt 0.000000 0.000000
vt 0.000000 0.000000
vt 0.000000 0.000000
vn 0.9219 -0.3861 0.0315
vn 0.3861 -0.9219 0.0315
vn -0.3861 -0.9219 0.0315
vn -0.9219 -0.3861 0.0315
vn -0.9219 0.3861 0.0315
vn -0.3861 0.9219 0.0315
vn 0.3861 0.9219 0.0315
vn 0.9219 0.3861 0.0315
vn 0.7408 -0.3468 0.5753
vn -0.3398 -0.7428 0.5769
vn -0.7471 0.3067 0.5898
vn 0.2525 0.7655 0.5919
vn 0.3468 -0.7408 0.5753
vn -0.7374 -0.3452 0.5806
vn -0.3398 0.7428 0.5769
vn 0.7506 0.2923 0.5926
vn 0.7751 0.3559 0.5220
vn 0.3628 -0.7729 0.5205
vn -0.7326 -0.4096 0.5435
vn -0.4315 0.7217 0.5413
vn 0.8050 -0.2841 0.5209
vn -0.2992 -0.7952 0.5275
vn -0.7970 0.2920 0.5287
vn 0.3620 0.7633 0.5351
vn -0.6047 -0.6047 0.5183
vn -0.6076 0.5997 0.5208
vn 0.5491 0.6433 0.5335
vn 0.6533 -0.5274 0.5432
vn -0.8554 -0.0078 0.5179
vn 0.0079 0.8533 0.5214
vn 0.8498 -0.0000 0.5272
vn -0.0865 -0.8408 0.5344
vn -0.8493 0.0314 0.5269
vn 0.0236 0.8495 0.5270
vn 0.8398 0.0392 0.5415
vn 0.0631 -0.8364 0.5445
vn -0.5921 0.6079 0.5290
vn 0.6206 0.5813 0.5263
vn 0.5841 -0.6157 0.5289
vn -0.6605 -0.5190 0.5426
usemtl SaplinTrunc
s 1
f 1/1/1 2/2/1 3/3/1
f 2/2/1 1/1/1 4/4/1
f 5/5/2 1/1/2 6/6/2
f 1/1/2 5/5/2 4/4/2
f 7/7/3 5/5/3 6/6/3
f 5/5/3 7/7/3 8/8/3
f 9/9/4 7/7/4 10/10/4
f 7/7/4 9/9/4 8/8/4
f 11/11/5 9/9/5 10/10/5
f 9/9/5 11/11/5 12/12/5
f 13/13/6 11/11/6 14/14/6
f 11/11/6 13/13/6 12/12/6
f 15/15/7 13/13/7 14/14/7
f 13/13/7 15/15/7 16/16/7
f 2/17/8 15/15/8 3/18/8
f 15/15/8 2/17/8 16/16/8
usemtl SaplinLeave
f 17/19/9 18/20/9 19/21/9
f 17/19/10 20/22/10 21/23/10
f 17/19/11 22/24/11 23/25/11
f 17/19/12 24/26/12 25/27/12
f 17/19/13 21/23/13 18/20/13
f 17/19/14 23/25/14 20/22/14
f 17/19/15 25/27/15 22/24/15
f 17/19/16 19/21/16 24/26/16
f 26/28/17 27/29/17 28/30/17
f 26/28/18 29/31/18 30/32/18
f 26/28/19 31/33/19 32/34/19
f 26/28/20 33/35/20 34/36/20
f 26/28/21 30/32/21 27/29/21
f 26/28/22 32/34/22 29/31/22
f 26/28/23 34/36/23 31/33/23
f 26/28/24 28/30/24 33/35/24
f 35/37/25 36/38/25 37/39/25
f 35/37/26 38/40/26 39/41/26
f 35/37/27 40/42/27 41/43/27
f 35/37/28 42/44/28 43/45/28
f 35/37/29 39/41/29 36/38/29
f 35/37/30 41/43/30 38/40/30
f 35/37/31 43/45/31 40/42/31
f 35/37/32 37/39/32 42/44/32
f 44/46/33 45/47/33 46/48/33
f 44/46/34 47/49/34 48/50/34
f 44/46/35 49/51/35 50/52/35
f 44/46/36 51/53/36 52/54/36
f 44/46/37 48/50/37 45/47/37
f 44/46/38 50/52/38 47/49/38
f 44/46/39 52/54/39 49/51/39
f 44/46/40 46/48/40 51/53/40
