# Blender v2.90.1 OBJ File: ''
# www.blender.org
mtllib saplin3.mtl
o Saplin3
v 0.023012 -0.023011 6.159244
v 0.128373 0.000000 -0.000000
v 0.032543 0.000000 6.159244
v 0.090773 -0.090773 0.000000
v -0.000000 -0.128373 0.000000
v 0.000001 -0.032542 6.159244
v -0.023010 -0.023011 6.159244
v -0.090773 -0.090773 0.000000
v -0.128373 0.000000 0.000000
v -0.032541 0.000000 6.159244
v -0.023010 0.023011 6.159244
v -0.090773 0.090773 0.000000
v 0.000000 0.128373 0.000000
v 0.000001 0.032542 6.159244
v 0.023012 0.023011 6.159244
v 0.090773 0.090773 0.000000
v 0.000001 0.000000 6.620308
v 0.438664 -0.420393 5.605683
v 0.484464 0.005889 5.851059
v -0.465894 -0.458078 5.536535
v -0.001927 -0.516979 5.783474
v -0.573509 0.499791 5.394641
v -0.502294 0.005889 5.825166
v 0.536647 0.561642 5.430512
v -0.001927 0.584258 5.680645
v -0.029819 -0.013508 6.397719
v -0.878030 -0.150848 4.760602
v -0.435374 -0.566505 5.108128
v -0.148438 0.903588 4.662666
v -0.611072 0.429528 5.012408
v 1.019889 0.196088 4.571042
v 0.406977 0.548656 5.071455
v 0.148152 -1.099900 4.512507
v 0.633466 -0.510548 4.866771
v -0.065286 -0.041420 6.091874
v -0.237745 -1.251408 3.754082
v 0.511499 -0.826254 4.247119
v -1.359967 0.180308 3.615141
v -0.911999 -0.645787 4.111320
v 0.076728 1.479144 3.330032
v -0.645627 0.783772 4.195092
v 1.404153 -0.138054 3.572200
v 0.884814 0.645584 3.904705
v 0.035242 0.073320 5.370351
v -0.463341 1.546469 2.646991
v -0.987635 0.629725 3.212938
v 1.238341 0.415052 2.965125
v 0.633374 1.172909 3.051140
v 0.508099 -1.301517 2.543035
v 1.087508 -0.499072 3.150949
v -1.293507 -0.341936 2.992779
v -0.626380 -1.142983 2.804969
vt 0.875000 1.000000
vt 1.000000 0.500000
vt 1.000000 1.000000
vt 0.875000 0.500000
vt 0.750000 0.500000
vt 0.750000 1.000000
vt 0.625000 1.000000
vt 0.625000 0.500000
vt 0.500000 0.500000
vt 0.500000 1.000000
vt 0.375000 1.000000
vt 0.375000 0.500000
vt 0.250000 0.500000
vt 0.250000 1.000000
vt 0.125000 1.000000
vt 0.125000 0.500000
vt 0.000000 0.500000
vt 0.000000 1.000000
vt 0.000000 0.000000
vt 0.000000 0.000000
vt 0.000000 0.000000
vt 0.000000 0.000000
vt 0.000000 0.000000
vt 0.000000 0.000000
vt 0.000000 0.000000
vt 0.000000 0.000000
vt 0.000000 0.000000
vt 0.000000 0.000000
vt 0.000000 0.000000
vt 0.000000 0.000000
vt 0.000000 0.000000
vt 0.000000 0.000000
vt 0.000000 0.000000
vt 0.000000 0.000000
vt 0.000000 0.000000
vt 0.000000 0.000000
vt 0.000000 0.000000
vt 0.000000 0.000000
vt 0.000000 0.000000
vt 0.000000 0.000000
vt 0.000000 0.000000
vt 0.000000 0.000000
vt 0.000000 0.000000
vt 0.000000 0.000000
vt 0.000000 0.000000
vt 0.000000 0.000000
vt 0.000000 0.000000
vt 0.000000 0.000000
vt 0.000000 0.000000
vt 0.000000 0.000000
vt 0.000000 0.000000
vt 0.000000 0.000000
vt 0.000000 0.000000
vt 0.000000 0.000000
vn 0.9223 -0.3863 0.0158
vn 0.9223 -0.3862 0.0158
vn 0.3862 -0.9223 0.0158
vn 0.3863 -0.9223 0.0158
vn -0.3862 -0.9223 0.0158
vn -0.3863 -0.9223 0.0158
vn -0.9223 -0.3862 0.0158
vn -0.9223 -0.3863 0.0158
vn -0.9223 0.3862 0.0158
vn -0.3862 0.9223 0.0158
vn 0.3862 0.9223 0.0158
vn 0.3863 0.9223 0.0158
vn 0.9223 0.3862 0.0158
vn 0.9223 0.3863 0.0158
vn 0.7862 -0.3695 0.4953
vn -0.3618 -0.7945 0.4877
vn -0.7990 0.3244 0.5063
vn 0.2672 0.8172 0.5107
vn 0.3709 -0.7893 0.4893
vn -0.7863 -0.3695 0.4952
vn -0.3627 0.7885 0.4968
vn 0.8026 0.3069 0.5115
vn -0.7722 -0.4570 0.4413
vn -0.4571 0.7723 0.4413
vn 0.6930 0.5512 0.4646
vn 0.5275 -0.7164 0.4566
vn -0.8755 0.2130 0.4338
vn 0.2287 0.8676 0.4416
vn 0.8471 -0.2745 0.4550
vn -0.3000 -0.8369 0.4579
vn 0.2047 -0.8739 0.4409
vn -0.8725 -0.2122 0.4402
vn -0.2745 0.8471 0.4550
vn 0.8164 0.3451 0.4631
vn -0.4648 -0.7721 0.4333
vn -0.7606 0.4783 0.4391
vn 0.4722 0.7634 0.4407
vn 0.7324 -0.5119 0.4489
vn -0.6214 0.6371 0.4561
vn 0.7253 0.5282 0.4415
vn 0.5369 -0.7185 0.4422
vn -0.6292 -0.6292 0.4562
vn 0.1341 0.8832 0.4495
vn 0.8962 -0.0550 0.4402
vn -0.0237 -0.9004 0.4344
vn -0.8729 0.1730 0.4561
usemtl SaplinTrunc.002
s 1
f 1/1/1 2/2/1 3/3/1
f 2/2/2 1/1/2 4/4/2
f 5/5/3 1/1/3 6/6/3
f 1/1/3 5/5/3 4/4/4
f 7/7/5 5/5/5 6/6/5
f 5/5/6 7/7/6 8/8/6
f 9/9/7 7/7/7 10/10/7
f 7/7/7 9/9/7 8/8/8
f 11/11/9 9/9/9 10/10/9
f 9/9/9 11/11/9 12/12/9
f 13/13/10 11/11/10 14/14/10
f 11/11/10 13/13/10 12/12/10
f 15/15/11 13/13/11 14/14/11
f 13/13/12 15/15/12 16/16/12
f 2/17/13 15/15/13 3/18/13
f 15/15/13 2/17/13 16/16/14
usemtl SaplinLeave.002
f 17/19/15 18/20/15 19/21/15
f 17/19/16 20/22/16 21/23/16
f 17/19/17 22/24/17 23/25/17
f 17/19/18 24/26/18 25/27/18
f 17/19/19 21/23/19 18/20/19
f 17/19/20 23/25/20 20/22/20
f 17/19/21 25/27/21 22/24/21
f 17/19/22 19/21/22 24/26/22
f 26/28/23 27/29/23 28/30/23
f 26/28/24 29/31/24 30/32/24
f 26/28/25 31/33/25 32/34/25
f 26/28/26 33/35/26 34/36/26
f 26/28/27 30/32/27 27/29/27
f 26/28/28 32/34/28 29/31/28
f 26/28/29 34/36/29 31/33/29
f 26/28/30 28/30/30 33/35/30
f 35/37/31 36/38/31 37/39/31
f 35/37/32 38/40/32 39/41/32
f 35/37/33 40/42/33 41/43/33
f 35/37/34 42/44/34 43/45/34
f 35/37/35 39/41/35 36/38/35
f 35/37/36 41/43/36 38/40/36
f 35/37/37 43/45/37 40/42/37
f 35/37/38 37/39/38 42/44/38
f 44/46/39 45/47/39 46/48/39
f 44/46/40 47/49/40 48/50/40
f 44/46/41 49/51/41 50/52/41
f 44/46/42 51/53/42 52/54/42
f 44/46/43 48/50/43 45/47/43
f 44/46/44 50/52/44 47/49/44
f 44/46/45 52/54/45 49/51/45
f 44/46/46 46/48/46 51/53/46
